<svg xmlns="http://www.w3.org/2000/svg" xmlns:xlink="http://www.w3.org/1999/xlink" xmlns:lucid="lucid" width="1964" height="1795"><g transform="translate(462.9999855793277 1081)" lucid:page-tab-id="Rh.QfM~97.wr"><path d="M-500-1500h2000v2500H-500z" fill="#fff"/><path d="M360-414a6 6 0 0 1 6-6h508a6 6 0 0 1 6 6v398a6 6 0 0 1-6 6H366a6 6 0 0 1-6-6z" fill="#fff"/><path d="M360-414a6 6 0 0 1 6-6h508a6 6 0 0 1 6 6v398a6 6 0 0 1-6 6H366a6 6 0 0 1-6-6zM360-380h520M429.3-380v370M602.1-380v370" stroke="#282c33" stroke-width="2" fill="none"/><use xlink:href="#a" transform="matrix(1,0,0,1,370,-420) translate(231.51234567901236 24.444444444444443)"/><use xlink:href="#b" transform="matrix(1,0,0,1,365,-377.5) translate(15.185185185185187 20.444444444444443)"/><use xlink:href="#c" transform="matrix(1,0,0,1,434.30446706588674,-377.5) translate(0 20.444444444444443)"/><use xlink:href="#d" transform="matrix(1,0,0,1,607.089590474605,-377.5) translate(0 20.444444444444443)"/><use xlink:href="#e" transform="matrix(1,0,0,1,434.30446706588674,-340.5) translate(0 20.444444444444443)"/><use xlink:href="#d" transform="matrix(1,0,0,1,607.089590474605,-340.5) translate(0 20.444444444444443)"/><use xlink:href="#f" transform="matrix(1,0,0,1,365,-303.5) translate(15.833333333333336 20.444444444444443)"/><use xlink:href="#g" transform="matrix(1,0,0,1,434.30446706588674,-303.5) translate(0 20.444444444444443)"/><use xlink:href="#d" transform="matrix(1,0,0,1,607.089590474605,-303.5) translate(0 20.444444444444443)"/><use xlink:href="#f" transform="matrix(1,0,0,1,365,-266.5) translate(15.833333333333336 20.444444444444443)"/><use xlink:href="#h" transform="matrix(1,0,0,1,434.30446706588674,-266.5) translate(0 20.444444444444443)"/><use xlink:href="#d" transform="matrix(1,0,0,1,607.089590474605,-266.5) translate(0 20.444444444444443)"/><use xlink:href="#i" transform="matrix(1,0,0,1,434.30446706588674,-229.5) translate(0 20.444444444444443)"/><use xlink:href="#j" transform="matrix(1,0,0,1,607.089590474605,-229.5) translate(0 20.444444444444443)"/><use xlink:href="#k" transform="matrix(1,0,0,1,607.089590474605,-229.5) translate(108.45679012345678 20.444444444444443)"/><use xlink:href="#l" transform="matrix(1,0,0,1,607.089590474605,-229.5) translate(154.01234567901236 20.444444444444443)"/><use xlink:href="#m" transform="matrix(1,0,0,1,607.089590474605,-229.5) translate(202.03703703703704 20.444444444444443)"/><use xlink:href="#n" transform="matrix(1,0,0,1,434.30446706588674,-192.5) translate(0 20.444444444444443)"/><use xlink:href="#o" transform="matrix(1,0,0,1,607.089590474605,-192.5) translate(0 20.444444444444443)"/><use xlink:href="#p" transform="matrix(1,0,0,1,607.089590474605,-192.5) translate(98.64197530864197 20.444444444444443)"/><use xlink:href="#q" transform="matrix(1,0,0,1,434.30446706588674,-155.5) translate(0 20.444444444444443)"/><use xlink:href="#j" transform="matrix(1,0,0,1,607.089590474605,-155.5) translate(0 20.444444444444443)"/><use xlink:href="#k" transform="matrix(1,0,0,1,607.089590474605,-155.5) translate(108.45679012345678 20.444444444444443)"/><use xlink:href="#l" transform="matrix(1,0,0,1,607.089590474605,-155.5) translate(154.01234567901236 20.444444444444443)"/><use xlink:href="#m" transform="matrix(1,0,0,1,607.089590474605,-155.5) translate(202.03703703703704 20.444444444444443)"/><use xlink:href="#r" transform="matrix(1,0,0,1,434.30446706588674,-118.5) translate(0 20.444444444444443)"/><use xlink:href="#o" transform="matrix(1,0,0,1,607.089590474605,-118.5) translate(0 20.444444444444443)"/><use xlink:href="#p" transform="matrix(1,0,0,1,607.089590474605,-118.5) translate(98.64197530864197 20.444444444444443)"/><use xlink:href="#s" transform="matrix(1,0,0,1,434.30446706588674,-81.5) translate(0 20.444444444444443)"/><use xlink:href="#j" transform="matrix(1,0,0,1,607.089590474605,-81.5) translate(0 20.444444444444443)"/><use xlink:href="#k" transform="matrix(1,0,0,1,607.089590474605,-81.5) translate(108.45679012345678 20.444444444444443)"/><use xlink:href="#l" transform="matrix(1,0,0,1,607.089590474605,-81.5) translate(154.01234567901236 20.444444444444443)"/><use xlink:href="#m" transform="matrix(1,0,0,1,607.089590474605,-81.5) translate(202.03703703703704 20.444444444444443)"/><use xlink:href="#t" transform="matrix(1,0,0,1,434.30446706588674,-44.5) translate(0 20.444444444444443)"/><use xlink:href="#o" transform="matrix(1,0,0,1,607.089590474605,-44.5) translate(0 20.444444444444443)"/><use xlink:href="#p" transform="matrix(1,0,0,1,607.089590474605,-44.5) translate(98.64197530864197 20.444444444444443)"/><path d="M-420 326a6 6 0 0 1 6-6h568a6 6 0 0 1 6 6v361a6 6 0 0 1-6 6h-568a6 6 0 0 1-6-6z" fill="#fff"/><path d="M-420 326a6 6 0 0 1 6-6h568a6 6 0 0 1 6 6v361a6 6 0 0 1-6 6h-568a6 6 0 0 1-6-6zM-420 360h580M-348.8 360v333M-212.1 360v333" stroke="#282c33" stroke-width="2" fill="none"/><use xlink:href="#u" transform="matrix(1,0,0,1,-410,320) translate(237.93827160493828 24.444444444444443)"/><use xlink:href="#b" transform="matrix(1,0,0,1,-415,362.5) translate(16.185185185185187 20.444444444444443)"/><use xlink:href="#v" transform="matrix(1,0,0,1,-343.79570743341355,362.5) translate(0 20.444444444444443)"/><use xlink:href="#d" transform="matrix(1,0,0,1,-207.08659880233972,362.5) translate(0 20.444444444444443)"/><use xlink:href="#w" transform="matrix(1,0,0,1,-343.79570743341355,399.5) translate(0 20.444444444444443)"/><use xlink:href="#o" transform="matrix(1,0,0,1,-207.08659880233972,399.5) translate(0 20.444444444444443)"/><use xlink:href="#p" transform="matrix(1,0,0,1,-207.08659880233972,399.5) translate(98.64197530864197 20.444444444444443)"/><use xlink:href="#x" transform="matrix(1,0,0,1,-343.79570743341355,436.5) translate(0 20.444444444444443)"/><use xlink:href="#o" transform="matrix(1,0,0,1,-207.08659880233972,436.5) translate(0 20.444444444444443)"/><use xlink:href="#y" transform="matrix(1,0,0,1,-207.08659880233972,436.5) translate(98.64197530864197 20.444444444444443)"/><use xlink:href="#i" transform="matrix(1,0,0,1,-343.79570743341355,473.5) translate(0 20.444444444444443)"/><use xlink:href="#j" transform="matrix(1,0,0,1,-207.08659880233972,473.5) translate(0 20.444444444444443)"/><use xlink:href="#k" transform="matrix(1,0,0,1,-207.08659880233972,473.5) translate(108.45679012345678 20.444444444444443)"/><use xlink:href="#l" transform="matrix(1,0,0,1,-207.08659880233972,473.5) translate(154.01234567901236 20.444444444444443)"/><use xlink:href="#m" transform="matrix(1,0,0,1,-207.08659880233972,473.5) translate(202.03703703703704 20.444444444444443)"/><use xlink:href="#n" transform="matrix(1,0,0,1,-343.79570743341355,510.5) translate(0 20.444444444444443)"/><use xlink:href="#o" transform="matrix(1,0,0,1,-207.08659880233972,510.5) translate(0 20.444444444444443)"/><use xlink:href="#p" transform="matrix(1,0,0,1,-207.08659880233972,510.5) translate(98.64197530864197 20.444444444444443)"/><use xlink:href="#q" transform="matrix(1,0,0,1,-343.79570743341355,547.5) translate(0 20.444444444444443)"/><use xlink:href="#j" transform="matrix(1,0,0,1,-207.08659880233972,547.5) translate(0 20.444444444444443)"/><use xlink:href="#k" transform="matrix(1,0,0,1,-207.08659880233972,547.5) translate(108.45679012345678 20.444444444444443)"/><use xlink:href="#l" transform="matrix(1,0,0,1,-207.08659880233972,547.5) translate(154.01234567901236 20.444444444444443)"/><use xlink:href="#m" transform="matrix(1,0,0,1,-207.08659880233972,547.5) translate(202.03703703703704 20.444444444444443)"/><use xlink:href="#r" transform="matrix(1,0,0,1,-343.79570743341355,584.5) translate(0 20.444444444444443)"/><use xlink:href="#o" transform="matrix(1,0,0,1,-207.08659880233972,584.5) translate(0 20.444444444444443)"/><use xlink:href="#p" transform="matrix(1,0,0,1,-207.08659880233972,584.5) translate(98.64197530864197 20.444444444444443)"/><use xlink:href="#s" transform="matrix(1,0,0,1,-343.79570743341355,621.5) translate(0 20.444444444444443)"/><use xlink:href="#j" transform="matrix(1,0,0,1,-207.08659880233972,621.5) translate(0 20.444444444444443)"/><use xlink:href="#k" transform="matrix(1,0,0,1,-207.08659880233972,621.5) translate(108.45679012345678 20.444444444444443)"/><use xlink:href="#l" transform="matrix(1,0,0,1,-207.08659880233972,621.5) translate(154.01234567901236 20.444444444444443)"/><use xlink:href="#m" transform="matrix(1,0,0,1,-207.08659880233972,621.5) translate(202.03703703703704 20.444444444444443)"/><use xlink:href="#t" transform="matrix(1,0,0,1,-343.79570743341355,658.5) translate(0 20.444444444444443)"/><use xlink:href="#o" transform="matrix(1,0,0,1,-207.08659880233972,658.5) translate(0 20.444444444444443)"/><use xlink:href="#p" transform="matrix(1,0,0,1,-207.08659880233972,658.5) translate(98.64197530864197 20.444444444444443)"/><path d="M-60-1054a6 6 0 0 1 6-6h508a6 6 0 0 1 6 6v509a6 6 0 0 1-6 6H-54a6 6 0 0 1-6-6z" fill="#fff"/><path d="M-60-1054a6 6 0 0 1 6-6h508a6 6 0 0 1 6 6v509a6 6 0 0 1-6 6H-54a6 6 0 0 1-6-6zM-60-1020h520M6.77-1020v481M181.46-1020v481" stroke="#282c33" stroke-width="2" fill="none"/><use xlink:href="#z" transform="matrix(1,0,0,1,-50,-1060) translate(204.3827160493827 24.444444444444443)"/><use xlink:href="#b" transform="matrix(1,0,0,1,-55,-1017.5) translate(13.685185185185187 20.444444444444443)"/><use xlink:href="#g" transform="matrix(1,0,0,1,11.773179532993254,-1017.5) translate(0 20.444444444444443)"/><use xlink:href="#d" transform="matrix(1,0,0,1,186.45704056158752,-1017.5) translate(0 20.444444444444443)"/><use xlink:href="#A" transform="matrix(1,0,0,1,11.773179532993254,-980.5) translate(0 20.444444444444443)"/><use xlink:href="#o" transform="matrix(1,0,0,1,186.45704056158752,-980.5) translate(0 20.444444444444443)"/><use xlink:href="#p" transform="matrix(1,0,0,1,186.45704056158752,-980.5) translate(98.64197530864197 20.444444444444443)"/><use xlink:href="#B" transform="matrix(1,0,0,1,11.773179532993254,-943.5) translate(0 20.444444444444443)"/><use xlink:href="#o" transform="matrix(1,0,0,1,186.45704056158752,-943.5) translate(0 20.444444444444443)"/><use xlink:href="#p" transform="matrix(1,0,0,1,186.45704056158752,-943.5) translate(98.64197530864197 20.444444444444443)"/><use xlink:href="#C" transform="matrix(1,0,0,1,-55,-906.5) translate(13.685185185185187 20.444444444444443)"/><use xlink:href="#D" transform="matrix(1,0,0,1,11.773179532993254,-906.5) translate(0 20.444444444444443)"/><use xlink:href="#o" transform="matrix(1,0,0,1,186.45704056158752,-906.5) translate(0 20.444444444444443)"/><use xlink:href="#p" transform="matrix(1,0,0,1,186.45704056158752,-906.5) translate(98.64197530864197 20.444444444444443)"/><use xlink:href="#E" transform="matrix(1,0,0,1,11.773179532993254,-869.5) translate(0 20.444444444444443)"/><use xlink:href="#o" transform="matrix(1,0,0,1,186.45704056158752,-869.5) translate(0 20.444444444444443)"/><use xlink:href="#y" transform="matrix(1,0,0,1,186.45704056158752,-869.5) translate(98.64197530864197 20.444444444444443)"/><use xlink:href="#F" transform="matrix(1,0,0,1,11.773179532993254,-832.5) translate(0 20.444444444444443)"/><use xlink:href="#o" transform="matrix(1,0,0,1,186.45704056158752,-832.5) translate(0 20.444444444444443)"/><use xlink:href="#p" transform="matrix(1,0,0,1,186.45704056158752,-832.5) translate(98.64197530864197 20.444444444444443)"/><use xlink:href="#C" transform="matrix(1,0,0,1,-55,-795.5) translate(13.685185185185187 20.444444444444443)"/><use xlink:href="#G" transform="matrix(1,0,0,1,11.773179532993254,-795.5) translate(0 20.444444444444443)"/><use xlink:href="#o" transform="matrix(1,0,0,1,186.45704056158752,-795.5) translate(0 20.444444444444443)"/><use xlink:href="#p" transform="matrix(1,0,0,1,186.45704056158752,-795.5) translate(98.64197530864197 20.444444444444443)"/><use xlink:href="#i" transform="matrix(1,0,0,1,11.773179532993254,-758.5) translate(0 20.444444444444443)"/><use xlink:href="#j" transform="matrix(1,0,0,1,186.45704056158752,-758.5) translate(0 20.444444444444443)"/><use xlink:href="#k" transform="matrix(1,0,0,1,186.45704056158752,-758.5) translate(108.45679012345678 20.444444444444443)"/><use xlink:href="#l" transform="matrix(1,0,0,1,186.45704056158752,-758.5) translate(154.01234567901236 20.444444444444443)"/><use xlink:href="#m" transform="matrix(1,0,0,1,186.45704056158752,-758.5) translate(202.03703703703704 20.444444444444443)"/><use xlink:href="#n" transform="matrix(1,0,0,1,11.773179532993254,-721.5) translate(0 20.444444444444443)"/><use xlink:href="#o" transform="matrix(1,0,0,1,186.45704056158752,-721.5) translate(0 20.444444444444443)"/><use xlink:href="#p" transform="matrix(1,0,0,1,186.45704056158752,-721.5) translate(98.64197530864197 20.444444444444443)"/><use xlink:href="#q" transform="matrix(1,0,0,1,11.773179532993254,-684.5) translate(0 20.444444444444443)"/><use xlink:href="#j" transform="matrix(1,0,0,1,186.45704056158752,-684.5) translate(0 20.444444444444443)"/><use xlink:href="#k" transform="matrix(1,0,0,1,186.45704056158752,-684.5) translate(108.45679012345678 20.444444444444443)"/><use xlink:href="#l" transform="matrix(1,0,0,1,186.45704056158752,-684.5) translate(154.01234567901236 20.444444444444443)"/><use xlink:href="#m" transform="matrix(1,0,0,1,186.45704056158752,-684.5) translate(202.03703703703704 20.444444444444443)"/><use xlink:href="#r" transform="matrix(1,0,0,1,11.773179532993254,-647.5) translate(0 20.444444444444443)"/><use xlink:href="#o" transform="matrix(1,0,0,1,186.45704056158752,-647.5) translate(0 20.444444444444443)"/><use xlink:href="#p" transform="matrix(1,0,0,1,186.45704056158752,-647.5) translate(98.64197530864197 20.444444444444443)"/><use xlink:href="#s" transform="matrix(1,0,0,1,11.773179532993254,-610.5) translate(0 20.444444444444443)"/><use xlink:href="#j" transform="matrix(1,0,0,1,186.45704056158752,-610.5) translate(0 20.444444444444443)"/><use xlink:href="#k" transform="matrix(1,0,0,1,186.45704056158752,-610.5) translate(108.45679012345678 20.444444444444443)"/><use xlink:href="#l" transform="matrix(1,0,0,1,186.45704056158752,-610.5) translate(154.01234567901236 20.444444444444443)"/><use xlink:href="#m" transform="matrix(1,0,0,1,186.45704056158752,-610.5) translate(202.03703703703704 20.444444444444443)"/><use xlink:href="#t" transform="matrix(1,0,0,1,11.773179532993254,-573.5) translate(0 20.444444444444443)"/><use xlink:href="#o" transform="matrix(1,0,0,1,186.45704056158752,-573.5) translate(0 20.444444444444443)"/><use xlink:href="#p" transform="matrix(1,0,0,1,186.45704056158752,-573.5) translate(98.64197530864197 20.444444444444443)"/><path d="M-420-314a6 6 0 0 1 6-6h548a6 6 0 0 1 6 6v472a6 6 0 0 1-6 6h-548a6 6 0 0 1-6-6z" fill="#fff"/><path d="M-420-314a6 6 0 0 1 6-6h548a6 6 0 0 1 6 6v472a6 6 0 0 1-6 6h-548a6 6 0 0 1-6-6zM-420-280h560M-332.02-280v444M-159.24-280v444" stroke="#282c33" stroke-width="2" fill="none"/><use xlink:href="#H" transform="matrix(1,0,0,1,-410,-320) translate(232.99382716049382 24.444444444444443)"/><use xlink:href="#b" transform="matrix(1,0,0,1,-415,-277.5) translate(24.185185185185187 20.444444444444443)"/><use xlink:href="#v" transform="matrix(1,0,0,1,-327.0233438110381,-277.5) translate(0 20.444444444444443)"/><use xlink:href="#d" transform="matrix(1,0,0,1,-154.2382204023197,-277.5) translate(0 20.444444444444443)"/><use xlink:href="#w" transform="matrix(1,0,0,1,-327.0233438110381,-240.5) translate(0 20.444444444444443)"/><use xlink:href="#o" transform="matrix(1,0,0,1,-154.2382204023197,-240.5) translate(0 20.444444444444443)"/><use xlink:href="#p" transform="matrix(1,0,0,1,-154.2382204023197,-240.5) translate(98.64197530864197 20.444444444444443)"/><use xlink:href="#x" transform="matrix(1,0,0,1,-327.0233438110381,-203.5) translate(0 20.444444444444443)"/><use xlink:href="#o" transform="matrix(1,0,0,1,-154.2382204023197,-203.5) translate(0 20.444444444444443)"/><use xlink:href="#y" transform="matrix(1,0,0,1,-154.2382204023197,-203.5) translate(98.64197530864197 20.444444444444443)"/><use xlink:href="#f" transform="matrix(1,0,0,1,-415,-166.5) translate(24.833333333333336 20.444444444444443)"/><use xlink:href="#I" transform="matrix(1,0,0,1,-327.0233438110381,-166.5) translate(0 20.444444444444443)"/><use xlink:href="#d" transform="matrix(1,0,0,1,-154.2382204023197,-166.5) translate(0 20.444444444444443)"/><use xlink:href="#J" transform="matrix(1,0,0,1,-327.0233438110381,-129.5) translate(0 20.444444444444443)"/><use xlink:href="#K" transform="matrix(1,0,0,1,-154.2382204023197,-129.5) translate(0 20.444444444444443)"/><use xlink:href="#L" transform="matrix(1,0,0,1,-154.2382204023197,-129.5) translate(72.77777777777777 20.444444444444443)"/><use xlink:href="#M" transform="matrix(1,0,0,1,-327.0233438110381,-92.5) translate(0 20.444444444444443)"/><use xlink:href="#N" transform="matrix(1,0,0,1,-154.2382204023197,-92.5) translate(0 20.444444444444443)"/><use xlink:href="#i" transform="matrix(1,0,0,1,-327.0233438110381,-55.5) translate(0 20.444444444444443)"/><use xlink:href="#j" transform="matrix(1,0,0,1,-154.2382204023197,-55.5) translate(0 20.444444444444443)"/><use xlink:href="#k" transform="matrix(1,0,0,1,-154.2382204023197,-55.5) translate(108.45679012345678 20.444444444444443)"/><use xlink:href="#l" transform="matrix(1,0,0,1,-154.2382204023197,-55.5) translate(154.01234567901236 20.444444444444443)"/><use xlink:href="#m" transform="matrix(1,0,0,1,-154.2382204023197,-55.5) translate(202.03703703703704 20.444444444444443)"/><use xlink:href="#n" transform="matrix(1,0,0,1,-327.0233438110381,-18.5) translate(0 20.444444444444443)"/><use xlink:href="#o" transform="matrix(1,0,0,1,-154.2382204023197,-18.5) translate(0 20.444444444444443)"/><use xlink:href="#p" transform="matrix(1,0,0,1,-154.2382204023197,-18.5) translate(98.64197530864197 20.444444444444443)"/><use xlink:href="#q" transform="matrix(1,0,0,1,-327.0233438110381,18.5) translate(0 20.444444444444443)"/><use xlink:href="#j" transform="matrix(1,0,0,1,-154.2382204023197,18.5) translate(0 20.444444444444443)"/><use xlink:href="#k" transform="matrix(1,0,0,1,-154.2382204023197,18.5) translate(108.45679012345678 20.444444444444443)"/><use xlink:href="#l" transform="matrix(1,0,0,1,-154.2382204023197,18.5) translate(154.01234567901236 20.444444444444443)"/><use xlink:href="#m" transform="matrix(1,0,0,1,-154.2382204023197,18.5) translate(202.03703703703704 20.444444444444443)"/><use xlink:href="#r" transform="matrix(1,0,0,1,-327.0233438110381,55.5) translate(0 20.444444444444443)"/><use xlink:href="#o" transform="matrix(1,0,0,1,-154.2382204023197,55.5) translate(0 20.444444444444443)"/><use xlink:href="#p" transform="matrix(1,0,0,1,-154.2382204023197,55.5) translate(98.64197530864197 20.444444444444443)"/><use xlink:href="#s" transform="matrix(1,0,0,1,-327.0233438110381,92.5) translate(0 20.444444444444443)"/><use xlink:href="#j" transform="matrix(1,0,0,1,-154.2382204023197,92.5) translate(0 20.444444444444443)"/><use xlink:href="#k" transform="matrix(1,0,0,1,-154.2382204023197,92.5) translate(108.45679012345678 20.444444444444443)"/><use xlink:href="#l" transform="matrix(1,0,0,1,-154.2382204023197,92.5) translate(154.01234567901236 20.444444444444443)"/><use xlink:href="#m" transform="matrix(1,0,0,1,-154.2382204023197,92.5) translate(202.03703703703704 20.444444444444443)"/><use xlink:href="#t" transform="matrix(1,0,0,1,-327.0233438110381,129.5) translate(0 20.444444444444443)"/><use xlink:href="#o" transform="matrix(1,0,0,1,-154.2382204023197,129.5) translate(0 20.444444444444443)"/><use xlink:href="#p" transform="matrix(1,0,0,1,-154.2382204023197,129.5) translate(98.64197530864197 20.444444444444443)"/><path d="M-441 378.06h-14a6 6 0 0 1-6-6v-516.82a6 6 0 0 1 6-6h14.6" stroke="#3a414a" fill="none"/><path d="M-441 368.06v20M-421 378.06h-20" stroke="#3a414a" fill="#fff"/><path d="M-421.22-140.76l-20-10 20-10" stroke="#3a414a" fill="#fff" fill-opacity="0"/><path d="M-421.22-150.76h-20" stroke="#3a414a" fill="#fff"/><path d="M161-262.15h83.24a5.76 5.76 0 0 1 5.76 5.75 5.76 5.76 0 0 0 5.76 5.76h83.83" stroke="#3a414a" fill="none"/><path d="M161-252.16v-20M141-262.15h20" stroke="#3a414a" fill="#fff"/><path d="M358.78-240.64l-20-10 20-10" stroke="#3a414a" fill="#fff" fill-opacity="0"/><path d="M358.78-250.64h-20" stroke="#3a414a" fill="#fff"/><path d="M1020-1034a6 6 0 0 1 6-6h428a6 6 0 0 1 6 6v398a6 6 0 0 1-6 6h-428a6 6 0 0 1-6-6z" fill="#fff"/><path d="M1020-1034a6 6 0 0 1 6-6h428a6 6 0 0 1 6 6v398a6 6 0 0 1-6 6h-428a6 6 0 0 1-6-6zM1020-1000h440M1064-1000v370M1191.04-1000v370" stroke="#282c33" stroke-width="2" fill="none"/><use xlink:href="#O" transform="matrix(1,0,0,1,1030,-1040) translate(184.1358024691358 24.444444444444443)"/><use xlink:href="#P" transform="matrix(1,0,0,1,1025,-997.5) translate(2.185185185185187 20.444444444444443)"/><use xlink:href="#Q" transform="matrix(1,0,0,1,1069,-997.5) translate(0 20.444444444444443)"/><use xlink:href="#R" transform="matrix(1,0,0,1,1196.0392210992934,-997.5) translate(0 20.444444444444443)"/><use xlink:href="#S" transform="matrix(1,0,0,1,1069,-960.5) translate(0 20.444444444444443)"/><use xlink:href="#T" transform="matrix(1,0,0,1,1196.0392210992934,-960.5) translate(0 20.444444444444443)"/><use xlink:href="#U" transform="matrix(1,0,0,1,1196.0392210992934,-960.5) translate(72.77777777777777 20.444444444444443)"/><use xlink:href="#V" transform="matrix(1,0,0,1,1025,-923.5) translate(2.8333333333333357 20.444444444444443)"/><use xlink:href="#W" transform="matrix(1,0,0,1,1069,-923.5) translate(0 20.444444444444443)"/><use xlink:href="#R" transform="matrix(1,0,0,1,1196.0392210992934,-923.5) translate(0 20.444444444444443)"/><use xlink:href="#V" transform="matrix(1,0,0,1,1025,-886.5) translate(2.8333333333333357 20.444444444444443)"/><use xlink:href="#X" transform="matrix(1,0,0,1,1069,-886.5) translate(0 20.444444444444443)"/><use xlink:href="#R" transform="matrix(1,0,0,1,1196.0392210992934,-886.5) translate(0 20.444444444444443)"/><use xlink:href="#Y" transform="matrix(1,0,0,1,1069,-849.5) translate(0 20.444444444444443)"/><use xlink:href="#Z" transform="matrix(1,0,0,1,1196.0392210992934,-849.5) translate(0 20.444444444444443)"/><use xlink:href="#aa" transform="matrix(1,0,0,1,1196.0392210992934,-849.5) translate(108.45679012345678 20.444444444444443)"/><use xlink:href="#ab" transform="matrix(1,0,0,1,1196.0392210992934,-849.5) translate(154.01234567901236 20.444444444444443)"/><use xlink:href="#ac" transform="matrix(1,0,0,1,1196.0392210992934,-849.5) translate(202.03703703703704 20.444444444444443)"/><use xlink:href="#ad" transform="matrix(1,0,0,1,1069,-812.5) translate(0 20.444444444444443)"/><use xlink:href="#ae" transform="matrix(1,0,0,1,1196.0392210992934,-812.5) translate(0 20.444444444444443)"/><use xlink:href="#af" transform="matrix(1,0,0,1,1196.0392210992934,-812.5) translate(98.64197530864197 20.444444444444443)"/><use xlink:href="#ag" transform="matrix(1,0,0,1,1069,-775.5) translate(0 20.444444444444443)"/><use xlink:href="#Z" transform="matrix(1,0,0,1,1196.0392210992934,-775.5) translate(0 20.444444444444443)"/><use xlink:href="#aa" transform="matrix(1,0,0,1,1196.0392210992934,-775.5) translate(108.45679012345678 20.444444444444443)"/><use xlink:href="#ab" transform="matrix(1,0,0,1,1196.0392210992934,-775.5) translate(154.01234567901236 20.444444444444443)"/><use xlink:href="#ac" transform="matrix(1,0,0,1,1196.0392210992934,-775.5) translate(202.03703703703704 20.444444444444443)"/><use xlink:href="#ah" transform="matrix(1,0,0,1,1069,-738.5) translate(0 20.444444444444443)"/><use xlink:href="#ae" transform="matrix(1,0,0,1,1196.0392210992934,-738.5) translate(0 20.444444444444443)"/><use xlink:href="#af" transform="matrix(1,0,0,1,1196.0392210992934,-738.5) translate(98.64197530864197 20.444444444444443)"/><use xlink:href="#ai" transform="matrix(1,0,0,1,1069,-701.5) translate(0 20.444444444444443)"/><use xlink:href="#Z" transform="matrix(1,0,0,1,1196.0392210992934,-701.5) translate(0 20.444444444444443)"/><use xlink:href="#aa" transform="matrix(1,0,0,1,1196.0392210992934,-701.5) translate(108.45679012345678 20.444444444444443)"/><use xlink:href="#ab" transform="matrix(1,0,0,1,1196.0392210992934,-701.5) translate(154.01234567901236 20.444444444444443)"/><use xlink:href="#ac" transform="matrix(1,0,0,1,1196.0392210992934,-701.5) translate(202.03703703703704 20.444444444444443)"/><use xlink:href="#aj" transform="matrix(1,0,0,1,1069,-664.5) translate(0 20.444444444444443)"/><use xlink:href="#ae" transform="matrix(1,0,0,1,1196.0392210992934,-664.5) translate(0 20.444444444444443)"/><use xlink:href="#af" transform="matrix(1,0,0,1,1196.0392210992934,-664.5) translate(98.64197530864197 20.444444444444443)"/><path d="M1020-514a6 6 0 0 1 6-6h448a6 6 0 0 1 6 6v398a6 6 0 0 1-6 6h-448a6 6 0 0 1-6-6z" fill="#fff"/><path d="M1020-514a6 6 0 0 1 6-6h448a6 6 0 0 1 6 6v398a6 6 0 0 1-6 6h-448a6 6 0 0 1-6-6zM1020-480h460M1064-480v370M1200.46-480v370" stroke="#282c33" stroke-width="2" fill="none"/><use xlink:href="#ak" transform="matrix(1,0,0,1,1030,-520) translate(177.93827160493828 24.444444444444443)"/><use xlink:href="#P" transform="matrix(1,0,0,1,1025,-477.5) translate(2.185185185185187 20.444444444444443)"/><use xlink:href="#Q" transform="matrix(1,0,0,1,1069,-477.5) translate(0 20.444444444444443)"/><use xlink:href="#R" transform="matrix(1,0,0,1,1205.46005241461,-477.5) translate(0 20.444444444444443)"/><use xlink:href="#al" transform="matrix(1,0,0,1,1069,-440.5) translate(0 20.444444444444443)"/><use xlink:href="#ae" transform="matrix(1,0,0,1,1205.46005241461,-440.5) translate(0 20.444444444444443)"/><use xlink:href="#am" transform="matrix(1,0,0,1,1205.46005241461,-440.5) translate(98.64197530864197 20.444444444444443)"/><g><use xlink:href="#an" transform="matrix(1,0,0,1,1069,-403.5) translate(0 20.444444444444443)"/></g><g><use xlink:href="#T" transform="matrix(1,0,0,1,1205.46005241461,-403.5) translate(0 20.444444444444443)"/><use xlink:href="#U" transform="matrix(1,0,0,1,1205.46005241461,-403.5) translate(72.77777777777777 20.444444444444443)"/></g><g><use xlink:href="#ao" transform="matrix(1,0,0,1,1069,-366.5) translate(0 20.444444444444443)"/></g><g><use xlink:href="#ae" transform="matrix(1,0,0,1,1205.46005241461,-366.5) translate(0 20.444444444444443)"/><use xlink:href="#af" transform="matrix(1,0,0,1,1205.46005241461,-366.5) translate(98.64197530864197 20.444444444444443)"/></g><g><use xlink:href="#Y" transform="matrix(1,0,0,1,1069,-329.5) translate(0 20.444444444444443)"/></g><g><use xlink:href="#Z" transform="matrix(1,0,0,1,1205.46005241461,-329.5) translate(0 20.444444444444443)"/><use xlink:href="#aa" transform="matrix(1,0,0,1,1205.46005241461,-329.5) translate(108.45679012345678 20.444444444444443)"/><use xlink:href="#ab" transform="matrix(1,0,0,1,1205.46005241461,-329.5) translate(154.01234567901236 20.444444444444443)"/><use xlink:href="#ac" transform="matrix(1,0,0,1,1205.46005241461,-329.5) translate(202.03703703703704 20.444444444444443)"/></g><g><use xlink:href="#ad" transform="matrix(1,0,0,1,1069,-292.5) translate(0 20.444444444444443)"/></g><g><use xlink:href="#ae" transform="matrix(1,0,0,1,1205.46005241461,-292.5) translate(0 20.444444444444443)"/><use xlink:href="#af" transform="matrix(1,0,0,1,1205.46005241461,-292.5) translate(98.64197530864197 20.444444444444443)"/></g><g><use xlink:href="#ag" transform="matrix(1,0,0,1,1069,-255.5) translate(0 20.444444444444443)"/></g><g><use xlink:href="#Z" transform="matrix(1,0,0,1,1205.46005241461,-255.5) translate(0 20.444444444444443)"/><use xlink:href="#aa" transform="matrix(1,0,0,1,1205.46005241461,-255.5) translate(108.45679012345678 20.444444444444443)"/><use xlink:href="#ab" transform="matrix(1,0,0,1,1205.46005241461,-255.5) translate(154.01234567901236 20.444444444444443)"/><use xlink:href="#ac" transform="matrix(1,0,0,1,1205.46005241461,-255.5) translate(202.03703703703704 20.444444444444443)"/></g><g><use xlink:href="#ah" transform="matrix(1,0,0,1,1069,-218.5) translate(0 20.444444444444443)"/></g><g><use xlink:href="#ae" transform="matrix(1,0,0,1,1205.46005241461,-218.5) translate(0 20.444444444444443)"/><use xlink:href="#af" transform="matrix(1,0,0,1,1205.46005241461,-218.5) translate(98.64197530864197 20.444444444444443)"/></g><g><use xlink:href="#ai" transform="matrix(1,0,0,1,1069,-181.5) translate(0 20.444444444444443)"/></g><g><use xlink:href="#Z" transform="matrix(1,0,0,1,1205.46005241461,-181.5) translate(0 20.444444444444443)"/><use xlink:href="#aa" transform="matrix(1,0,0,1,1205.46005241461,-181.5) translate(108.45679012345678 20.444444444444443)"/><use xlink:href="#ab" transform="matrix(1,0,0,1,1205.46005241461,-181.5) translate(154.01234567901236 20.444444444444443)"/><use xlink:href="#ac" transform="matrix(1,0,0,1,1205.46005241461,-181.5) translate(202.03703703703704 20.444444444444443)"/></g><g><use xlink:href="#aj" transform="matrix(1,0,0,1,1069,-144.5) translate(0 20.444444444444443)"/></g><g><use xlink:href="#ae" transform="matrix(1,0,0,1,1205.46005241461,-144.5) translate(0 20.444444444444443)"/><use xlink:href="#af" transform="matrix(1,0,0,1,1205.46005241461,-144.5) translate(98.64197530864197 20.444444444444443)"/></g><path d="M481-1002.28h253a6 6 0 0 1 6 6v82.45a6 6 0 0 0 6 6h253.6" stroke="#3a414a" fill="none"/><path d="M481-992.28v-20M461-1002.28h20" stroke="#3a414a" fill="#fff"/><path d="M1018.78-897.83l-20-10 20-10" stroke="#3a414a" fill="#fff" fill-opacity="0"/><path d="M1018.78-907.83h-20" stroke="#3a414a" fill="#fff"/><path d="M-81-1002.28h-14a6 6 0 0 0-6 6v702.5a6 6 0 0 0 6 6h434.6" stroke="#3a414a" fill="none"/><path d="M-81-1012.28v20M-61-1002.28h-20" stroke="#3a414a" fill="#fff"/><path d="M358.78-277.78l-20-10 20-10" stroke="#3a414a" fill="#fff" fill-opacity="0"/><path d="M358.78-287.78h-20" stroke="#3a414a" fill="#fff"/><path d="M999-462.14h-14a6 6 0 0 1-6-6v-396.52a6 6 0 0 1 6-6h14.6" stroke="#3a414a" fill="none"/><path d="M999-472.14v20M1019-462.14h-20" stroke="#3a414a" fill="#fff"/><path d="M1018.78-860.66l-20-10 20-10" stroke="#3a414a" fill="#fff" fill-opacity="0"/><path d="M1018.78-870.66h-20" stroke="#3a414a" fill="#fff"/><path d="M460 166a6 6 0 0 1 6-6h508a6 6 0 0 1 6 6v435a6 6 0 0 1-6 6H466a6 6 0 0 1-6-6z" fill="#fff"/><path d="M460 166a6 6 0 0 1 6-6h508a6 6 0 0 1 6 6v435a6 6 0 0 1-6 6H466a6 6 0 0 1-6-6zM460 200h520M527.3 200v407M668.36 200v407" stroke="#282c33" stroke-width="2" fill="none"/><g><use xlink:href="#ap" transform="matrix(1,0,0,1,470,160) translate(197.03703703703704 24.444444444444443)"/></g><g><use xlink:href="#P" transform="matrix(1,0,0,1,465,202.5) translate(14.185185185185187 20.444444444444443)"/></g><g><use xlink:href="#Q" transform="matrix(1,0,0,1,532.3117491205039,202.5) translate(0 20.444444444444443)"/></g><g><use xlink:href="#R" transform="matrix(1,0,0,1,673.3565999218845,202.5) translate(0 20.444444444444443)"/></g><g><use xlink:href="#aq" transform="matrix(1,0,0,1,532.3117491205039,239.5) translate(0 20.444444444444443)"/></g><g><use xlink:href="#R" transform="matrix(1,0,0,1,673.3565999218845,239.5) translate(0 20.444444444444443)"/></g><g><use xlink:href="#V" transform="matrix(1,0,0,1,465,276.5) translate(14.833333333333336 20.444444444444443)"/></g><g><use xlink:href="#ar" transform="matrix(1,0,0,1,532.3117491205039,276.5) translate(0 20.444444444444443)"/></g><g><use xlink:href="#R" transform="matrix(1,0,0,1,673.3565999218845,276.5) translate(0 20.444444444444443)"/></g><g><use xlink:href="#as" transform="matrix(1,0,0,1,532.3117491205039,313.5) translate(0 20.444444444444443)"/></g><g><use xlink:href="#T" transform="matrix(1,0,0,1,673.3565999218845,313.5) translate(0 20.444444444444443)"/><use xlink:href="#U" transform="matrix(1,0,0,1,673.3565999218845,313.5) translate(72.77777777777777 20.444444444444443)"/></g><g><use xlink:href="#V" transform="matrix(1,0,0,1,465,350.5) translate(14.833333333333336 20.444444444444443)"/></g><g><use xlink:href="#at" transform="matrix(1,0,0,1,532.3117491205039,350.5) translate(0 20.444444444444443)"/></g><g><use xlink:href="#R" transform="matrix(1,0,0,1,673.3565999218845,350.5) translate(0 20.444444444444443)"/></g><g><use xlink:href="#Y" transform="matrix(1,0,0,1,532.3117491205039,387.5) translate(0 20.444444444444443)"/></g><g><use xlink:href="#Z" transform="matrix(1,0,0,1,673.3565999218845,387.5) translate(0 20.444444444444443)"/><use xlink:href="#aa" transform="matrix(1,0,0,1,673.3565999218845,387.5) translate(108.45679012345678 20.444444444444443)"/><use xlink:href="#ab" transform="matrix(1,0,0,1,673.3565999218845,387.5) translate(154.01234567901236 20.444444444444443)"/><use xlink:href="#ac" transform="matrix(1,0,0,1,673.3565999218845,387.5) translate(202.03703703703704 20.444444444444443)"/></g><g><use xlink:href="#ad" transform="matrix(1,0,0,1,532.3117491205039,424.5) translate(0 20.444444444444443)"/></g><g><use xlink:href="#ae" transform="matrix(1,0,0,1,673.3565999218845,424.5) translate(0 20.444444444444443)"/><use xlink:href="#af" transform="matrix(1,0,0,1,673.3565999218845,424.5) translate(98.64197530864197 20.444444444444443)"/></g><g><use xlink:href="#ag" transform="matrix(1,0,0,1,532.3117491205039,461.5) translate(0 20.444444444444443)"/></g><g><use xlink:href="#Z" transform="matrix(1,0,0,1,673.3565999218845,461.5) translate(0 20.444444444444443)"/><use xlink:href="#aa" transform="matrix(1,0,0,1,673.3565999218845,461.5) translate(108.45679012345678 20.444444444444443)"/><use xlink:href="#ab" transform="matrix(1,0,0,1,673.3565999218845,461.5) translate(154.01234567901236 20.444444444444443)"/><use xlink:href="#ac" transform="matrix(1,0,0,1,673.3565999218845,461.5) translate(202.03703703703704 20.444444444444443)"/></g><g><use xlink:href="#ah" transform="matrix(1,0,0,1,532.3117491205039,498.5) translate(0 20.444444444444443)"/></g><g><use xlink:href="#ae" transform="matrix(1,0,0,1,673.3565999218845,498.5) translate(0 20.444444444444443)"/><use xlink:href="#af" transform="matrix(1,0,0,1,673.3565999218845,498.5) translate(98.64197530864197 20.444444444444443)"/></g><g><use xlink:href="#ai" transform="matrix(1,0,0,1,532.3117491205039,535.5) translate(0 20.444444444444443)"/></g><g><use xlink:href="#Z" transform="matrix(1,0,0,1,673.3565999218845,535.5) translate(0 20.444444444444443)"/><use xlink:href="#aa" transform="matrix(1,0,0,1,673.3565999218845,535.5) translate(108.45679012345678 20.444444444444443)"/><use xlink:href="#ab" transform="matrix(1,0,0,1,673.3565999218845,535.5) translate(154.01234567901236 20.444444444444443)"/><use xlink:href="#ac" transform="matrix(1,0,0,1,673.3565999218845,535.5) translate(202.03703703703704 20.444444444444443)"/></g><g><use xlink:href="#aj" transform="matrix(1,0,0,1,532.3117491205039,572.5) translate(0 20.444444444444443)"/></g><g><use xlink:href="#ae" transform="matrix(1,0,0,1,673.3565999218845,572.5) translate(0 20.444444444444443)"/><use xlink:href="#af" transform="matrix(1,0,0,1,673.3565999218845,572.5) translate(98.64197530864197 20.444444444444443)"/></g><path d="M1000-981.17V369.35" stroke="#3a414a" fill="none"/><path d="M998.5-991.1l1.05 19.97M1019-982.17l-19.97 1.05" stroke="#3a414a" fill="#fff"/><path d="M981 359.76l20.22 9.57-19.78 10.43" stroke="#3a414a" fill="#fff" fill-opacity="0"/><path d="M981.22 369.76l20-.43" stroke="#3a414a" fill="#fff"/><path d="M161-262.15h133a6 6 0 0 1 6 6V290.5a6 6 0 0 0 6 6h133.6" stroke="#3a414a" fill="none"/><path d="M161-252.16v-20M141-262.15h20" stroke="#3a414a" fill="#fff"/><path d="M458.78 306.5l-20-10 20-10" stroke="#3a414a" fill="#fff" fill-opacity="0"/><path d="M458.78 296.5h-20" stroke="#3a414a" fill="#fff"/><defs><path fill="#3a414a" d="M96-169c-40 0-48 33-48 73s9 75 48 75c24 0 41-14 43-38l32 2c-6 37-31 61-74 61-59 0-76-41-82-99-10-93 101-131 147-64 4 7 5 14 7 22l-32 3c-4-21-16-35-41-35" id="au"/><path fill="#3a414a" d="M141-36C126-15 110 5 73 4 37 3 15-17 15-53c-1-64 63-63 125-63 3-35-9-54-41-54-24 1-41 7-42 31l-33-3c5-37 33-52 76-52 45 0 72 20 72 64v82c-1 20 7 32 28 27v20c-31 9-61-2-59-35zM48-53c0 20 12 33 32 33 41-3 63-29 60-74-43 2-92-5-92 41" id="av"/><path fill="#3a414a" d="M114-163C36-179 61-72 57 0H25l-1-190h30c1 12-1 29 2 39 6-27 23-49 58-41v29" id="aw"/><path fill="#3a414a" d="M59-47c-2 24 18 29 38 22v24C64 9 27 4 27-40v-127H5v-23h24l9-43h21v43h35v23H59v120" id="ax"/><g id="a"><use transform="matrix(0.06172839506172839,0,0,0.06172839506172839,0,0)" xlink:href="#au"/><use transform="matrix(0.06172839506172839,0,0,0.06172839506172839,11.11111111111111,0)" xlink:href="#av"/><use transform="matrix(0.06172839506172839,0,0,0.06172839506172839,23.45679012345679,0)" xlink:href="#aw"/><use transform="matrix(0.06172839506172839,0,0,0.06172839506172839,30.80246913580247,0)" xlink:href="#ax"/></g><path fill="#3a414a" d="M30-248c87 1 191-15 191 75 0 78-77 80-158 76V0H30v-248zm33 125c57 0 124 11 124-50 0-59-68-47-124-48v98" id="ay"/><path fill="#3a414a" d="M194 0L95-120 63-95V0H30v-248h33v124l119-124h40L117-140 236 0h-42" id="az"/><g id="b"><use transform="matrix(0.06172839506172839,0,0,0.06172839506172839,0,0)" xlink:href="#ay"/><use transform="matrix(0.06172839506172839,0,0,0.06172839506172839,14.814814814814813,0)" xlink:href="#az"/></g><path fill="#3a414a" d="M-5 72V49h209v23H-5" id="aA"/><path fill="#3a414a" d="M24-231v-30h32v30H24zM24 0v-190h32V0H24" id="aB"/><path fill="#3a414a" d="M85-194c31 0 48 13 60 33l-1-100h32l1 261h-30c-2-10 0-23-3-31C134-8 116 4 85 4 32 4 16-35 15-94c0-66 23-100 70-100zm9 24c-40 0-46 34-46 75 0 40 6 74 45 74 42 0 51-32 51-76 0-42-9-74-50-73" id="aC"/><g id="c"><use transform="matrix(0.06172839506172839,0,0,0.06172839506172839,0,0)" xlink:href="#au"/><use transform="matrix(0.06172839506172839,0,0,0.06172839506172839,11.11111111111111,0)" xlink:href="#av"/><use transform="matrix(0.06172839506172839,0,0,0.06172839506172839,23.45679012345679,0)" xlink:href="#aw"/><use transform="matrix(0.06172839506172839,0,0,0.06172839506172839,30.80246913580247,0)" xlink:href="#ax"/><use transform="matrix(0.06172839506172839,0,0,0.06172839506172839,36.97530864197531,0)" xlink:href="#aA"/><use transform="matrix(0.06172839506172839,0,0,0.06172839506172839,49.32098765432099,0)" xlink:href="#aB"/><use transform="matrix(0.06172839506172839,0,0,0.06172839506172839,54.19753086419753,0)" xlink:href="#aC"/></g><path fill="#3a414a" d="M115-194c53 0 69 39 70 98 0 66-23 100-70 100C84 3 66-7 56-30L54 0H23l1-261h32v101c10-23 28-34 59-34zm-8 174c40 0 45-34 45-75 0-40-5-75-45-74-42 0-51 32-51 76 0 43 10 73 51 73" id="aD"/><path fill="#3a414a" d="M177-190C167-65 218 103 67 71c-23-6-38-20-44-43l32-5c15 47 100 32 89-28v-30C133-14 115 1 83 1 29 1 15-40 15-95c0-56 16-97 71-98 29-1 48 16 59 35 1-10 0-23 2-32h30zM94-22c36 0 50-32 50-73 0-42-14-75-50-75-39 0-46 34-46 75s6 73 46 73" id="aE"/><path fill="#3a414a" d="M117-194c89-4 53 116 60 194h-32v-121c0-31-8-49-39-48C34-167 62-67 57 0H25l-1-190h30c1 10-1 24 2 32 11-22 29-35 61-36" id="aF"/><g id="d"><use transform="matrix(0.06172839506172839,0,0,0.06172839506172839,0,0)" xlink:href="#aD"/><use transform="matrix(0.06172839506172839,0,0,0.06172839506172839,12.345679012345679,0)" xlink:href="#aB"/><use transform="matrix(0.06172839506172839,0,0,0.06172839506172839,17.22222222222222,0)" xlink:href="#aE"/><use transform="matrix(0.06172839506172839,0,0,0.06172839506172839,29.5679012345679,0)" xlink:href="#aB"/><use transform="matrix(0.06172839506172839,0,0,0.06172839506172839,34.44444444444444,0)" xlink:href="#aF"/><use transform="matrix(0.06172839506172839,0,0,0.06172839506172839,46.79012345679012,0)" xlink:href="#ax"/></g><path fill="#3a414a" d="M145-31C134-9 116 4 85 4 32 4 16-35 15-94c0-59 17-99 70-100 32-1 48 14 60 33 0-11-1-24 2-32h30l-1 268h-32zM93-21c41 0 51-33 51-76s-8-73-50-73c-40 0-46 35-46 75s5 74 45 74" id="aG"/><path fill="#3a414a" d="M84 4C-5 8 30-112 23-190h32v120c0 31 7 50 39 49 72-2 45-101 50-169h31l1 190h-30c-1-10 1-25-2-33-11 22-28 36-60 37" id="aH"/><path fill="#3a414a" d="M179-190L93 31C79 59 56 82 12 73V49c39 6 53-20 64-50L1-190h34L92-34l54-156h33" id="aI"/><g id="e"><use transform="matrix(0.06172839506172839,0,0,0.06172839506172839,0,0)" xlink:href="#aG"/><use transform="matrix(0.06172839506172839,0,0,0.06172839506172839,12.345679012345679,0)" xlink:href="#aH"/><use transform="matrix(0.06172839506172839,0,0,0.06172839506172839,24.691358024691358,0)" xlink:href="#av"/><use transform="matrix(0.06172839506172839,0,0,0.06172839506172839,37.03703703703704,0)" xlink:href="#aF"/><use transform="matrix(0.06172839506172839,0,0,0.06172839506172839,49.382716049382715,0)" xlink:href="#ax"/><use transform="matrix(0.06172839506172839,0,0,0.06172839506172839,55.55555555555556,0)" xlink:href="#aB"/><use transform="matrix(0.06172839506172839,0,0,0.06172839506172839,60.4320987654321,0)" xlink:href="#ax"/><use transform="matrix(0.06172839506172839,0,0,0.06172839506172839,66.60493827160494,0)" xlink:href="#aI"/></g><path fill="#3a414a" d="M63-220v92h138v28H63V0H30v-248h175v28H63" id="aJ"/><g id="f"><use transform="matrix(0.06172839506172839,0,0,0.06172839506172839,0,0)" xlink:href="#aJ"/><use transform="matrix(0.06172839506172839,0,0,0.06172839506172839,13.518518518518517,0)" xlink:href="#az"/></g><path fill="#3a414a" d="M135-143c-3-34-86-38-87 0 15 53 115 12 119 90S17 21 10-45l28-5c4 36 97 45 98 0-10-56-113-15-118-90-4-57 82-63 122-42 12 7 21 19 24 35" id="aK"/><path fill="#3a414a" d="M100-194c62-1 85 37 85 99 1 63-27 99-86 99S16-35 15-95c0-66 28-99 85-99zM99-20c44 1 53-31 53-75 0-43-8-75-51-75s-53 32-53 75 10 74 51 75" id="aL"/><path fill="#3a414a" d="M210-169c-67 3-38 105-44 169h-31v-121c0-29-5-50-35-48C34-165 62-65 56 0H25l-1-190h30c1 10-1 24 2 32 10-44 99-50 107 0 11-21 27-35 58-36 85-2 47 119 55 194h-31v-121c0-29-5-49-35-48" id="aM"/><path fill="#3a414a" d="M100-194c63 0 86 42 84 106H49c0 40 14 67 53 68 26 1 43-12 49-29l28 8c-11 28-37 45-77 45C44 4 14-33 15-96c1-61 26-98 85-98zm52 81c6-60-76-77-97-28-3 7-6 17-6 28h103" id="aN"/><g id="g"><use transform="matrix(0.06172839506172839,0,0,0.06172839506172839,0,0)" xlink:href="#au"/><use transform="matrix(0.06172839506172839,0,0,0.06172839506172839,11.11111111111111,0)" xlink:href="#aH"/><use transform="matrix(0.06172839506172839,0,0,0.06172839506172839,23.45679012345679,0)" xlink:href="#aK"/><use transform="matrix(0.06172839506172839,0,0,0.06172839506172839,34.5679012345679,0)" xlink:href="#ax"/><use transform="matrix(0.06172839506172839,0,0,0.06172839506172839,40.74074074074074,0)" xlink:href="#aL"/><use transform="matrix(0.06172839506172839,0,0,0.06172839506172839,53.08641975308642,0)" xlink:href="#aM"/><use transform="matrix(0.06172839506172839,0,0,0.06172839506172839,71.5432098765432,0)" xlink:href="#aN"/><use transform="matrix(0.06172839506172839,0,0,0.06172839506172839,83.88888888888889,0)" xlink:href="#aw"/><use transform="matrix(0.06172839506172839,0,0,0.06172839506172839,91.23456790123457,0)" xlink:href="#aA"/><use transform="matrix(0.06172839506172839,0,0,0.06172839506172839,103.58024691358025,0)" xlink:href="#aB"/><use transform="matrix(0.06172839506172839,0,0,0.06172839506172839,108.4567901234568,0)" xlink:href="#aC"/></g><path fill="#3a414a" d="M115-194c55 1 70 41 70 98S169 2 115 4C84 4 66-9 55-30l1 105H24l-1-265h31l2 30c10-21 28-34 59-34zm-8 174c40 0 45-34 45-75s-6-73-45-74c-42 0-51 32-51 76 0 43 10 73 51 73" id="aO"/><g id="h"><use transform="matrix(0.06172839506172839,0,0,0.06172839506172839,0,0)" xlink:href="#aO"/><use transform="matrix(0.06172839506172839,0,0,0.06172839506172839,12.345679012345679,0)" xlink:href="#aw"/><use transform="matrix(0.06172839506172839,0,0,0.06172839506172839,19.691358024691358,0)" xlink:href="#aL"/><use transform="matrix(0.06172839506172839,0,0,0.06172839506172839,32.03703703703704,0)" xlink:href="#aC"/><use transform="matrix(0.06172839506172839,0,0,0.06172839506172839,44.382716049382715,0)" xlink:href="#aH"/><use transform="matrix(0.06172839506172839,0,0,0.06172839506172839,56.72839506172839,0)" xlink:href="#au"/><use transform="matrix(0.06172839506172839,0,0,0.06172839506172839,67.8395061728395,0)" xlink:href="#ax"/><use transform="matrix(0.06172839506172839,0,0,0.06172839506172839,74.01234567901234,0)" xlink:href="#aA"/><use transform="matrix(0.06172839506172839,0,0,0.06172839506172839,86.35802469135803,0)" xlink:href="#aB"/><use transform="matrix(0.06172839506172839,0,0,0.06172839506172839,91.23456790123457,0)" xlink:href="#aC"/></g><g id="i"><use transform="matrix(0.06172839506172839,0,0,0.06172839506172839,0,0)" xlink:href="#au"/><use transform="matrix(0.06172839506172839,0,0,0.06172839506172839,11.11111111111111,0)" xlink:href="#aw"/><use transform="matrix(0.06172839506172839,0,0,0.06172839506172839,18.45679012345679,0)" xlink:href="#aN"/><use transform="matrix(0.06172839506172839,0,0,0.06172839506172839,30.80246913580247,0)" xlink:href="#av"/><use transform="matrix(0.06172839506172839,0,0,0.06172839506172839,43.148148148148145,0)" xlink:href="#ax"/><use transform="matrix(0.06172839506172839,0,0,0.06172839506172839,49.32098765432099,0)" xlink:href="#aN"/><use transform="matrix(0.06172839506172839,0,0,0.06172839506172839,61.666666666666664,0)" xlink:href="#aC"/><use transform="matrix(0.06172839506172839,0,0,0.06172839506172839,74.01234567901234,0)" xlink:href="#aA"/><use transform="matrix(0.06172839506172839,0,0,0.06172839506172839,86.35802469135803,0)" xlink:href="#av"/><use transform="matrix(0.06172839506172839,0,0,0.06172839506172839,98.70370370370371,0)" xlink:href="#ax"/></g><g id="j"><use transform="matrix(0.06172839506172839,0,0,0.06172839506172839,0,0)" xlink:href="#ax"/><use transform="matrix(0.06172839506172839,0,0,0.06172839506172839,6.172839506172839,0)" xlink:href="#aB"/><use transform="matrix(0.06172839506172839,0,0,0.06172839506172839,11.049382716049383,0)" xlink:href="#aM"/><use transform="matrix(0.06172839506172839,0,0,0.06172839506172839,29.50617283950617,0)" xlink:href="#aN"/><use transform="matrix(0.06172839506172839,0,0,0.06172839506172839,41.85185185185185,0)" xlink:href="#aK"/><use transform="matrix(0.06172839506172839,0,0,0.06172839506172839,52.96296296296296,0)" xlink:href="#ax"/><use transform="matrix(0.06172839506172839,0,0,0.06172839506172839,59.135802469135804,0)" xlink:href="#av"/><use transform="matrix(0.06172839506172839,0,0,0.06172839506172839,71.48148148148148,0)" xlink:href="#aM"/><use transform="matrix(0.06172839506172839,0,0,0.06172839506172839,89.93827160493827,0)" xlink:href="#aO"/></g><path fill="#3a414a" d="M206 0h-36l-40-164L89 0H53L-1-190h32L70-26l43-164h34l41 164 42-164h31" id="aP"/><path fill="#3a414a" d="M106-169C34-169 62-67 57 0H25v-261h32l-1 103c12-21 28-36 61-36 89 0 53 116 60 194h-32v-121c2-32-8-49-39-48" id="aQ"/><g id="k"><use transform="matrix(0.06172839506172839,0,0,0.06172839506172839,0,0)" xlink:href="#aP"/><use transform="matrix(0.06172839506172839,0,0,0.06172839506172839,15.987654320987653,0)" xlink:href="#aB"/><use transform="matrix(0.06172839506172839,0,0,0.06172839506172839,20.864197530864196,0)" xlink:href="#ax"/><use transform="matrix(0.06172839506172839,0,0,0.06172839506172839,27.037037037037035,0)" xlink:href="#aQ"/></g><g id="l"><use transform="matrix(0.06172839506172839,0,0,0.06172839506172839,0,0)" xlink:href="#ax"/><use transform="matrix(0.06172839506172839,0,0,0.06172839506172839,6.172839506172839,0)" xlink:href="#aB"/><use transform="matrix(0.06172839506172839,0,0,0.06172839506172839,11.049382716049383,0)" xlink:href="#aM"/><use transform="matrix(0.06172839506172839,0,0,0.06172839506172839,29.50617283950617,0)" xlink:href="#aN"/></g><path fill="#3a414a" d="M9 0v-24l116-142H16v-24h144v24L44-24h123V0H9" id="aR"/><g id="m"><use transform="matrix(0.06172839506172839,0,0,0.06172839506172839,0,0)" xlink:href="#aR"/><use transform="matrix(0.06172839506172839,0,0,0.06172839506172839,11.11111111111111,0)" xlink:href="#aL"/><use transform="matrix(0.06172839506172839,0,0,0.06172839506172839,23.45679012345679,0)" xlink:href="#aF"/><use transform="matrix(0.06172839506172839,0,0,0.06172839506172839,35.80246913580247,0)" xlink:href="#aN"/></g><g id="n"><use transform="matrix(0.06172839506172839,0,0,0.06172839506172839,0,0)" xlink:href="#au"/><use transform="matrix(0.06172839506172839,0,0,0.06172839506172839,11.11111111111111,0)" xlink:href="#aw"/><use transform="matrix(0.06172839506172839,0,0,0.06172839506172839,18.45679012345679,0)" xlink:href="#aN"/><use transform="matrix(0.06172839506172839,0,0,0.06172839506172839,30.80246913580247,0)" xlink:href="#av"/><use transform="matrix(0.06172839506172839,0,0,0.06172839506172839,43.148148148148145,0)" xlink:href="#ax"/><use transform="matrix(0.06172839506172839,0,0,0.06172839506172839,49.32098765432099,0)" xlink:href="#aN"/><use transform="matrix(0.06172839506172839,0,0,0.06172839506172839,61.666666666666664,0)" xlink:href="#aC"/><use transform="matrix(0.06172839506172839,0,0,0.06172839506172839,74.01234567901234,0)" xlink:href="#aA"/><use transform="matrix(0.06172839506172839,0,0,0.06172839506172839,86.35802469135803,0)" xlink:href="#aD"/><use transform="matrix(0.06172839506172839,0,0,0.06172839506172839,98.70370370370371,0)" xlink:href="#aI"/></g><g id="o"><use transform="matrix(0.06172839506172839,0,0,0.06172839506172839,0,0)" xlink:href="#au"/><use transform="matrix(0.06172839506172839,0,0,0.06172839506172839,11.11111111111111,0)" xlink:href="#aQ"/><use transform="matrix(0.06172839506172839,0,0,0.06172839506172839,23.45679012345679,0)" xlink:href="#av"/><use transform="matrix(0.06172839506172839,0,0,0.06172839506172839,35.80246913580247,0)" xlink:href="#aw"/><use transform="matrix(0.06172839506172839,0,0,0.06172839506172839,43.148148148148145,0)" xlink:href="#av"/><use transform="matrix(0.06172839506172839,0,0,0.06172839506172839,55.49382716049382,0)" xlink:href="#au"/><use transform="matrix(0.06172839506172839,0,0,0.06172839506172839,66.60493827160494,0)" xlink:href="#ax"/><use transform="matrix(0.06172839506172839,0,0,0.06172839506172839,72.77777777777777,0)" xlink:href="#aN"/><use transform="matrix(0.06172839506172839,0,0,0.06172839506172839,85.12345679012346,0)" xlink:href="#aw"/></g><path fill="#3a414a" d="M108 0H70L1-190h34L89-25l56-165h34" id="aS"/><path fill="#3a414a" d="M87 75C49 33 22-17 22-94c0-76 28-126 65-167h31c-38 41-64 92-64 168S80 34 118 75H87" id="aT"/><path fill="#3a414a" d="M54-142c48-35 137-8 131 61C196 18 31 33 14-55l32-4c7 23 22 37 52 37 35-1 51-22 54-58 4-55-73-65-99-34H22l8-134h141v27H59" id="aU"/><path fill="#3a414a" d="M101-251c68 0 85 55 85 127S166 4 100 4C33 4 14-52 14-124c0-73 17-127 87-127zm-1 229c47 0 54-49 54-102s-4-102-53-102c-51 0-55 48-55 102 0 53 5 102 54 102" id="aV"/><path fill="#3a414a" d="M33-261c38 41 65 92 65 168S71 34 33 75H2C39 34 66-17 66-93S39-220 2-261h31" id="aW"/><g id="p"><use transform="matrix(0.06172839506172839,0,0,0.06172839506172839,0,0)" xlink:href="#aS"/><use transform="matrix(0.06172839506172839,0,0,0.06172839506172839,11.11111111111111,0)" xlink:href="#av"/><use transform="matrix(0.06172839506172839,0,0,0.06172839506172839,23.45679012345679,0)" xlink:href="#aw"/><use transform="matrix(0.06172839506172839,0,0,0.06172839506172839,30.80246913580247,0)" xlink:href="#aI"/><use transform="matrix(0.06172839506172839,0,0,0.06172839506172839,41.91358024691358,0)" xlink:href="#aB"/><use transform="matrix(0.06172839506172839,0,0,0.06172839506172839,46.79012345679013,0)" xlink:href="#aF"/><use transform="matrix(0.06172839506172839,0,0,0.06172839506172839,59.135802469135804,0)" xlink:href="#aE"/><use transform="matrix(0.06172839506172839,0,0,0.06172839506172839,71.48148148148148,0)" xlink:href="#aT"/><use transform="matrix(0.06172839506172839,0,0,0.06172839506172839,78.82716049382717,0)" xlink:href="#aU"/><use transform="matrix(0.06172839506172839,0,0,0.06172839506172839,91.17283950617285,0)" xlink:href="#aV"/><use transform="matrix(0.06172839506172839,0,0,0.06172839506172839,103.51851851851853,0)" xlink:href="#aW"/></g><g id="q"><use transform="matrix(0.06172839506172839,0,0,0.06172839506172839,0,0)" xlink:href="#aH"/><use transform="matrix(0.06172839506172839,0,0,0.06172839506172839,12.345679012345679,0)" xlink:href="#aO"/><use transform="matrix(0.06172839506172839,0,0,0.06172839506172839,24.691358024691358,0)" xlink:href="#aC"/><use transform="matrix(0.06172839506172839,0,0,0.06172839506172839,37.03703703703704,0)" xlink:href="#av"/><use transform="matrix(0.06172839506172839,0,0,0.06172839506172839,49.382716049382715,0)" xlink:href="#ax"/><use transform="matrix(0.06172839506172839,0,0,0.06172839506172839,55.55555555555556,0)" xlink:href="#aN"/><use transform="matrix(0.06172839506172839,0,0,0.06172839506172839,67.90123456790124,0)" xlink:href="#aC"/><use transform="matrix(0.06172839506172839,0,0,0.06172839506172839,80.24691358024693,0)" xlink:href="#aA"/><use transform="matrix(0.06172839506172839,0,0,0.06172839506172839,92.59259259259261,0)" xlink:href="#av"/><use transform="matrix(0.06172839506172839,0,0,0.06172839506172839,104.9382716049383,0)" xlink:href="#ax"/></g><g id="r"><use transform="matrix(0.06172839506172839,0,0,0.06172839506172839,0,0)" xlink:href="#aH"/><use transform="matrix(0.06172839506172839,0,0,0.06172839506172839,12.345679012345679,0)" xlink:href="#aO"/><use transform="matrix(0.06172839506172839,0,0,0.06172839506172839,24.691358024691358,0)" xlink:href="#aC"/><use transform="matrix(0.06172839506172839,0,0,0.06172839506172839,37.03703703703704,0)" xlink:href="#av"/><use transform="matrix(0.06172839506172839,0,0,0.06172839506172839,49.382716049382715,0)" xlink:href="#ax"/><use transform="matrix(0.06172839506172839,0,0,0.06172839506172839,55.55555555555556,0)" xlink:href="#aN"/><use transform="matrix(0.06172839506172839,0,0,0.06172839506172839,67.90123456790124,0)" xlink:href="#aC"/><use transform="matrix(0.06172839506172839,0,0,0.06172839506172839,80.24691358024693,0)" xlink:href="#aA"/><use transform="matrix(0.06172839506172839,0,0,0.06172839506172839,92.59259259259261,0)" xlink:href="#aD"/><use transform="matrix(0.06172839506172839,0,0,0.06172839506172839,104.9382716049383,0)" xlink:href="#aI"/></g><path fill="#3a414a" d="M24 0v-261h32V0H24" id="aX"/><g id="s"><use transform="matrix(0.06172839506172839,0,0,0.06172839506172839,0,0)" xlink:href="#aC"/><use transform="matrix(0.06172839506172839,0,0,0.06172839506172839,12.345679012345679,0)" xlink:href="#aN"/><use transform="matrix(0.06172839506172839,0,0,0.06172839506172839,24.691358024691358,0)" xlink:href="#aX"/><use transform="matrix(0.06172839506172839,0,0,0.06172839506172839,29.5679012345679,0)" xlink:href="#aN"/><use transform="matrix(0.06172839506172839,0,0,0.06172839506172839,41.913580246913575,0)" xlink:href="#ax"/><use transform="matrix(0.06172839506172839,0,0,0.06172839506172839,48.08641975308642,0)" xlink:href="#aN"/><use transform="matrix(0.06172839506172839,0,0,0.06172839506172839,60.432098765432094,0)" xlink:href="#aC"/><use transform="matrix(0.06172839506172839,0,0,0.06172839506172839,72.77777777777777,0)" xlink:href="#aA"/><use transform="matrix(0.06172839506172839,0,0,0.06172839506172839,85.12345679012346,0)" xlink:href="#av"/><use transform="matrix(0.06172839506172839,0,0,0.06172839506172839,97.46913580246914,0)" xlink:href="#ax"/></g><g id="t"><use transform="matrix(0.06172839506172839,0,0,0.06172839506172839,0,0)" xlink:href="#aC"/><use transform="matrix(0.06172839506172839,0,0,0.06172839506172839,12.345679012345679,0)" xlink:href="#aN"/><use transform="matrix(0.06172839506172839,0,0,0.06172839506172839,24.691358024691358,0)" xlink:href="#aX"/><use transform="matrix(0.06172839506172839,0,0,0.06172839506172839,29.5679012345679,0)" xlink:href="#aN"/><use transform="matrix(0.06172839506172839,0,0,0.06172839506172839,41.913580246913575,0)" xlink:href="#ax"/><use transform="matrix(0.06172839506172839,0,0,0.06172839506172839,48.08641975308642,0)" xlink:href="#aN"/><use transform="matrix(0.06172839506172839,0,0,0.06172839506172839,60.432098765432094,0)" xlink:href="#aC"/><use transform="matrix(0.06172839506172839,0,0,0.06172839506172839,72.77777777777777,0)" xlink:href="#aA"/><use transform="matrix(0.06172839506172839,0,0,0.06172839506172839,85.12345679012346,0)" xlink:href="#aD"/><use transform="matrix(0.06172839506172839,0,0,0.06172839506172839,97.46913580246914,0)" xlink:href="#aI"/></g><g id="u"><use transform="matrix(0.06172839506172839,0,0,0.06172839506172839,0,0)" xlink:href="#au"/><use transform="matrix(0.06172839506172839,0,0,0.06172839506172839,11.11111111111111,0)" xlink:href="#av"/><use transform="matrix(0.06172839506172839,0,0,0.06172839506172839,23.45679012345679,0)" xlink:href="#ax"/><use transform="matrix(0.06172839506172839,0,0,0.06172839506172839,29.62962962962963,0)" xlink:href="#aN"/><use transform="matrix(0.06172839506172839,0,0,0.06172839506172839,41.97530864197531,0)" xlink:href="#aE"/><use transform="matrix(0.06172839506172839,0,0,0.06172839506172839,54.32098765432099,0)" xlink:href="#aL"/><use transform="matrix(0.06172839506172839,0,0,0.06172839506172839,66.66666666666667,0)" xlink:href="#aw"/><use transform="matrix(0.06172839506172839,0,0,0.06172839506172839,74.01234567901236,0)" xlink:href="#aI"/></g><g id="v"><use transform="matrix(0.06172839506172839,0,0,0.06172839506172839,0,0)" xlink:href="#aB"/><use transform="matrix(0.06172839506172839,0,0,0.06172839506172839,4.876543209876543,0)" xlink:href="#aC"/></g><g id="w"><use transform="matrix(0.06172839506172839,0,0,0.06172839506172839,0,0)" xlink:href="#aF"/><use transform="matrix(0.06172839506172839,0,0,0.06172839506172839,12.345679012345679,0)" xlink:href="#av"/><use transform="matrix(0.06172839506172839,0,0,0.06172839506172839,24.691358024691358,0)" xlink:href="#aM"/><use transform="matrix(0.06172839506172839,0,0,0.06172839506172839,43.148148148148145,0)" xlink:href="#aN"/></g><g id="x"><use transform="matrix(0.06172839506172839,0,0,0.06172839506172839,0,0)" xlink:href="#aC"/><use transform="matrix(0.06172839506172839,0,0,0.06172839506172839,12.345679012345679,0)" xlink:href="#aN"/><use transform="matrix(0.06172839506172839,0,0,0.06172839506172839,24.691358024691358,0)" xlink:href="#aK"/><use transform="matrix(0.06172839506172839,0,0,0.06172839506172839,35.80246913580247,0)" xlink:href="#au"/><use transform="matrix(0.06172839506172839,0,0,0.06172839506172839,46.91358024691358,0)" xlink:href="#aw"/><use transform="matrix(0.06172839506172839,0,0,0.06172839506172839,54.25925925925926,0)" xlink:href="#aB"/><use transform="matrix(0.06172839506172839,0,0,0.06172839506172839,59.135802469135804,0)" xlink:href="#aO"/><use transform="matrix(0.06172839506172839,0,0,0.06172839506172839,71.48148148148148,0)" xlink:href="#ax"/><use transform="matrix(0.06172839506172839,0,0,0.06172839506172839,77.65432098765432,0)" xlink:href="#aB"/><use transform="matrix(0.06172839506172839,0,0,0.06172839506172839,82.53086419753086,0)" xlink:href="#aL"/><use transform="matrix(0.06172839506172839,0,0,0.06172839506172839,94.87654320987654,0)" xlink:href="#aF"/></g><path fill="#3a414a" d="M27 0v-27h64v-190l-56 39v-29l58-41h29v221h61V0H27" id="aY"/><g id="y"><use transform="matrix(0.06172839506172839,0,0,0.06172839506172839,0,0)" xlink:href="#aS"/><use transform="matrix(0.06172839506172839,0,0,0.06172839506172839,11.11111111111111,0)" xlink:href="#av"/><use transform="matrix(0.06172839506172839,0,0,0.06172839506172839,23.45679012345679,0)" xlink:href="#aw"/><use transform="matrix(0.06172839506172839,0,0,0.06172839506172839,30.80246913580247,0)" xlink:href="#aI"/><use transform="matrix(0.06172839506172839,0,0,0.06172839506172839,41.91358024691358,0)" xlink:href="#aB"/><use transform="matrix(0.06172839506172839,0,0,0.06172839506172839,46.79012345679013,0)" xlink:href="#aF"/><use transform="matrix(0.06172839506172839,0,0,0.06172839506172839,59.135802469135804,0)" xlink:href="#aE"/><use transform="matrix(0.06172839506172839,0,0,0.06172839506172839,71.48148148148148,0)" xlink:href="#aT"/><use transform="matrix(0.06172839506172839,0,0,0.06172839506172839,78.82716049382717,0)" xlink:href="#aY"/><use transform="matrix(0.06172839506172839,0,0,0.06172839506172839,91.17283950617285,0)" xlink:href="#aV"/><use transform="matrix(0.06172839506172839,0,0,0.06172839506172839,103.51851851851853,0)" xlink:href="#aV"/><use transform="matrix(0.06172839506172839,0,0,0.06172839506172839,115.86419753086422,0)" xlink:href="#aW"/></g><g id="z"><use transform="matrix(0.06172839506172839,0,0,0.06172839506172839,0,0)" xlink:href="#au"/><use transform="matrix(0.06172839506172839,0,0,0.06172839506172839,11.11111111111111,0)" xlink:href="#aH"/><use transform="matrix(0.06172839506172839,0,0,0.06172839506172839,23.45679012345679,0)" xlink:href="#aK"/><use transform="matrix(0.06172839506172839,0,0,0.06172839506172839,34.5679012345679,0)" xlink:href="#ax"/><use transform="matrix(0.06172839506172839,0,0,0.06172839506172839,40.74074074074074,0)" xlink:href="#aL"/><use transform="matrix(0.06172839506172839,0,0,0.06172839506172839,53.08641975308642,0)" xlink:href="#aM"/><use transform="matrix(0.06172839506172839,0,0,0.06172839506172839,71.5432098765432,0)" xlink:href="#aN"/><use transform="matrix(0.06172839506172839,0,0,0.06172839506172839,83.88888888888889,0)" xlink:href="#aw"/></g><path fill="#3a414a" d="M101-234c-31-9-42 10-38 44h38v23H63V0H32v-167H5v-23h27c-7-52 17-82 69-68v24" id="aZ"/><g id="A"><use transform="matrix(0.06172839506172839,0,0,0.06172839506172839,0,0)" xlink:href="#aZ"/><use transform="matrix(0.06172839506172839,0,0,0.06172839506172839,6.172839506172839,0)" xlink:href="#aB"/><use transform="matrix(0.06172839506172839,0,0,0.06172839506172839,11.049382716049383,0)" xlink:href="#aw"/><use transform="matrix(0.06172839506172839,0,0,0.06172839506172839,18.395061728395063,0)" xlink:href="#aK"/><use transform="matrix(0.06172839506172839,0,0,0.06172839506172839,29.506172839506174,0)" xlink:href="#ax"/><use transform="matrix(0.06172839506172839,0,0,0.06172839506172839,35.67901234567901,0)" xlink:href="#aA"/><use transform="matrix(0.06172839506172839,0,0,0.06172839506172839,48.02469135802469,0)" xlink:href="#aF"/><use transform="matrix(0.06172839506172839,0,0,0.06172839506172839,60.37037037037037,0)" xlink:href="#av"/><use transform="matrix(0.06172839506172839,0,0,0.06172839506172839,72.71604938271605,0)" xlink:href="#aM"/><use transform="matrix(0.06172839506172839,0,0,0.06172839506172839,91.17283950617283,0)" xlink:href="#aN"/></g><g id="B"><use transform="matrix(0.06172839506172839,0,0,0.06172839506172839,0,0)" xlink:href="#aX"/><use transform="matrix(0.06172839506172839,0,0,0.06172839506172839,4.876543209876543,0)" xlink:href="#av"/><use transform="matrix(0.06172839506172839,0,0,0.06172839506172839,17.22222222222222,0)" xlink:href="#aK"/><use transform="matrix(0.06172839506172839,0,0,0.06172839506172839,28.333333333333332,0)" xlink:href="#ax"/><use transform="matrix(0.06172839506172839,0,0,0.06172839506172839,34.50617283950617,0)" xlink:href="#aA"/><use transform="matrix(0.06172839506172839,0,0,0.06172839506172839,46.85185185185185,0)" xlink:href="#aF"/><use transform="matrix(0.06172839506172839,0,0,0.06172839506172839,59.197530864197525,0)" xlink:href="#av"/><use transform="matrix(0.06172839506172839,0,0,0.06172839506172839,71.5432098765432,0)" xlink:href="#aM"/><use transform="matrix(0.06172839506172839,0,0,0.06172839506172839,89.99999999999999,0)" xlink:href="#aN"/></g><path fill="#3a414a" d="M205 0l-28-72H64L36 0H1l101-248h38L239 0h-34zm-38-99l-47-123c-12 45-31 82-46 123h93" id="ba"/><g id="C"><use transform="matrix(0.06172839506172839,0,0,0.06172839506172839,0,0)" xlink:href="#ba"/><use transform="matrix(0.06172839506172839,0,0,0.06172839506172839,14.814814814814813,0)" xlink:href="#az"/></g><g id="D"><use transform="matrix(0.06172839506172839,0,0,0.06172839506172839,0,0)" xlink:href="#aN"/><use transform="matrix(0.06172839506172839,0,0,0.06172839506172839,12.345679012345679,0)" xlink:href="#aM"/><use transform="matrix(0.06172839506172839,0,0,0.06172839506172839,30.80246913580247,0)" xlink:href="#av"/><use transform="matrix(0.06172839506172839,0,0,0.06172839506172839,43.148148148148145,0)" xlink:href="#aB"/><use transform="matrix(0.06172839506172839,0,0,0.06172839506172839,48.02469135802469,0)" xlink:href="#aX"/></g><g id="E"><use transform="matrix(0.06172839506172839,0,0,0.06172839506172839,0,0)" xlink:href="#aO"/><use transform="matrix(0.06172839506172839,0,0,0.06172839506172839,12.345679012345679,0)" xlink:href="#av"/><use transform="matrix(0.06172839506172839,0,0,0.06172839506172839,24.691358024691358,0)" xlink:href="#aK"/><use transform="matrix(0.06172839506172839,0,0,0.06172839506172839,35.80246913580247,0)" xlink:href="#aK"/><use transform="matrix(0.06172839506172839,0,0,0.06172839506172839,46.91358024691358,0)" xlink:href="#aP"/><use transform="matrix(0.06172839506172839,0,0,0.06172839506172839,62.901234567901234,0)" xlink:href="#aL"/><use transform="matrix(0.06172839506172839,0,0,0.06172839506172839,75.24691358024691,0)" xlink:href="#aw"/><use transform="matrix(0.06172839506172839,0,0,0.06172839506172839,82.5925925925926,0)" xlink:href="#aC"/></g><g id="F"><use transform="matrix(0.06172839506172839,0,0,0.06172839506172839,0,0)" xlink:href="#av"/><use transform="matrix(0.06172839506172839,0,0,0.06172839506172839,12.345679012345679,0)" xlink:href="#aC"/><use transform="matrix(0.06172839506172839,0,0,0.06172839506172839,24.691358024691358,0)" xlink:href="#aC"/><use transform="matrix(0.06172839506172839,0,0,0.06172839506172839,37.03703703703704,0)" xlink:href="#aw"/><use transform="matrix(0.06172839506172839,0,0,0.06172839506172839,44.382716049382715,0)" xlink:href="#aN"/><use transform="matrix(0.06172839506172839,0,0,0.06172839506172839,56.72839506172839,0)" xlink:href="#aK"/><use transform="matrix(0.06172839506172839,0,0,0.06172839506172839,67.8395061728395,0)" xlink:href="#aK"/></g><g id="G"><use transform="matrix(0.06172839506172839,0,0,0.06172839506172839,0,0)" xlink:href="#aO"/><use transform="matrix(0.06172839506172839,0,0,0.06172839506172839,12.345679012345679,0)" xlink:href="#aQ"/><use transform="matrix(0.06172839506172839,0,0,0.06172839506172839,24.691358024691358,0)" xlink:href="#aL"/><use transform="matrix(0.06172839506172839,0,0,0.06172839506172839,37.03703703703704,0)" xlink:href="#aF"/><use transform="matrix(0.06172839506172839,0,0,0.06172839506172839,49.382716049382715,0)" xlink:href="#aN"/><use transform="matrix(0.06172839506172839,0,0,0.06172839506172839,61.72839506172839,0)" xlink:href="#aA"/><use transform="matrix(0.06172839506172839,0,0,0.06172839506172839,74.07407407407408,0)" xlink:href="#aF"/><use transform="matrix(0.06172839506172839,0,0,0.06172839506172839,86.41975308641976,0)" xlink:href="#aH"/><use transform="matrix(0.06172839506172839,0,0,0.06172839506172839,98.76543209876544,0)" xlink:href="#aM"/><use transform="matrix(0.06172839506172839,0,0,0.06172839506172839,117.22222222222223,0)" xlink:href="#aD"/><use transform="matrix(0.06172839506172839,0,0,0.06172839506172839,129.5679012345679,0)" xlink:href="#aN"/><use transform="matrix(0.06172839506172839,0,0,0.06172839506172839,141.91358024691357,0)" xlink:href="#aw"/></g><g id="H"><use transform="matrix(0.06172839506172839,0,0,0.06172839506172839,0,0)" xlink:href="#aO"/><use transform="matrix(0.06172839506172839,0,0,0.06172839506172839,12.345679012345679,0)" xlink:href="#aw"/><use transform="matrix(0.06172839506172839,0,0,0.06172839506172839,19.691358024691358,0)" xlink:href="#aL"/><use transform="matrix(0.06172839506172839,0,0,0.06172839506172839,32.03703703703704,0)" xlink:href="#aC"/><use transform="matrix(0.06172839506172839,0,0,0.06172839506172839,44.382716049382715,0)" xlink:href="#aH"/><use transform="matrix(0.06172839506172839,0,0,0.06172839506172839,56.72839506172839,0)" xlink:href="#au"/><use transform="matrix(0.06172839506172839,0,0,0.06172839506172839,67.8395061728395,0)" xlink:href="#ax"/></g><g id="I"><use transform="matrix(0.06172839506172839,0,0,0.06172839506172839,0,0)" xlink:href="#au"/><use transform="matrix(0.06172839506172839,0,0,0.06172839506172839,11.11111111111111,0)" xlink:href="#av"/><use transform="matrix(0.06172839506172839,0,0,0.06172839506172839,23.45679012345679,0)" xlink:href="#ax"/><use transform="matrix(0.06172839506172839,0,0,0.06172839506172839,29.62962962962963,0)" xlink:href="#aN"/><use transform="matrix(0.06172839506172839,0,0,0.06172839506172839,41.97530864197531,0)" xlink:href="#aE"/><use transform="matrix(0.06172839506172839,0,0,0.06172839506172839,54.32098765432099,0)" xlink:href="#aL"/><use transform="matrix(0.06172839506172839,0,0,0.06172839506172839,66.66666666666667,0)" xlink:href="#aw"/><use transform="matrix(0.06172839506172839,0,0,0.06172839506172839,74.01234567901236,0)" xlink:href="#aI"/><use transform="matrix(0.06172839506172839,0,0,0.06172839506172839,85.12345679012347,0)" xlink:href="#aA"/><use transform="matrix(0.06172839506172839,0,0,0.06172839506172839,97.46913580246915,0)" xlink:href="#aB"/><use transform="matrix(0.06172839506172839,0,0,0.06172839506172839,102.3456790123457,0)" xlink:href="#aC"/></g><g id="J"><use transform="matrix(0.06172839506172839,0,0,0.06172839506172839,0,0)" xlink:href="#aO"/><use transform="matrix(0.06172839506172839,0,0,0.06172839506172839,12.345679012345679,0)" xlink:href="#aw"/><use transform="matrix(0.06172839506172839,0,0,0.06172839506172839,19.691358024691358,0)" xlink:href="#aB"/><use transform="matrix(0.06172839506172839,0,0,0.06172839506172839,24.5679012345679,0)" xlink:href="#au"/><use transform="matrix(0.06172839506172839,0,0,0.06172839506172839,35.67901234567901,0)" xlink:href="#aN"/></g><g id="K"><use transform="matrix(0.06172839506172839,0,0,0.06172839506172839,0,0)" xlink:href="#aC"/><use transform="matrix(0.06172839506172839,0,0,0.06172839506172839,12.345679012345679,0)" xlink:href="#aL"/><use transform="matrix(0.06172839506172839,0,0,0.06172839506172839,24.691358024691358,0)" xlink:href="#aH"/><use transform="matrix(0.06172839506172839,0,0,0.06172839506172839,37.03703703703704,0)" xlink:href="#aD"/><use transform="matrix(0.06172839506172839,0,0,0.06172839506172839,49.382716049382715,0)" xlink:href="#aX"/><use transform="matrix(0.06172839506172839,0,0,0.06172839506172839,54.25925925925926,0)" xlink:href="#aN"/></g><g id="L"><use transform="matrix(0.06172839506172839,0,0,0.06172839506172839,0,0)" xlink:href="#aO"/><use transform="matrix(0.06172839506172839,0,0,0.06172839506172839,12.345679012345679,0)" xlink:href="#aw"/><use transform="matrix(0.06172839506172839,0,0,0.06172839506172839,19.691358024691358,0)" xlink:href="#aN"/><use transform="matrix(0.06172839506172839,0,0,0.06172839506172839,32.03703703703704,0)" xlink:href="#au"/><use transform="matrix(0.06172839506172839,0,0,0.06172839506172839,43.14814814814815,0)" xlink:href="#aB"/><use transform="matrix(0.06172839506172839,0,0,0.06172839506172839,48.0246913580247,0)" xlink:href="#aK"/><use transform="matrix(0.06172839506172839,0,0,0.06172839506172839,59.13580246913581,0)" xlink:href="#aB"/><use transform="matrix(0.06172839506172839,0,0,0.06172839506172839,64.01234567901236,0)" xlink:href="#aL"/><use transform="matrix(0.06172839506172839,0,0,0.06172839506172839,76.35802469135804,0)" xlink:href="#aF"/></g><path fill="#3a414a" d="M143 0L79-87 56-68V0H24v-261h32v163l83-92h37l-77 82L181 0h-38" id="bb"/><g id="M"><use transform="matrix(0.06172839506172839,0,0,0.06172839506172839,0,0)" xlink:href="#aK"/><use transform="matrix(0.06172839506172839,0,0,0.06172839506172839,11.11111111111111,0)" xlink:href="#ax"/><use transform="matrix(0.06172839506172839,0,0,0.06172839506172839,17.28395061728395,0)" xlink:href="#aL"/><use transform="matrix(0.06172839506172839,0,0,0.06172839506172839,29.629629629629626,0)" xlink:href="#au"/><use transform="matrix(0.06172839506172839,0,0,0.06172839506172839,40.74074074074073,0)" xlink:href="#bb"/></g><g id="N"><use transform="matrix(0.06172839506172839,0,0,0.06172839506172839,0,0)" xlink:href="#aK"/><use transform="matrix(0.06172839506172839,0,0,0.06172839506172839,11.11111111111111,0)" xlink:href="#aM"/><use transform="matrix(0.06172839506172839,0,0,0.06172839506172839,29.5679012345679,0)" xlink:href="#av"/><use transform="matrix(0.06172839506172839,0,0,0.06172839506172839,41.913580246913575,0)" xlink:href="#aX"/><use transform="matrix(0.06172839506172839,0,0,0.06172839506172839,46.79012345679012,0)" xlink:href="#aX"/><use transform="matrix(0.06172839506172839,0,0,0.06172839506172839,51.666666666666664,0)" xlink:href="#aB"/><use transform="matrix(0.06172839506172839,0,0,0.06172839506172839,56.54320987654321,0)" xlink:href="#aF"/><use transform="matrix(0.06172839506172839,0,0,0.06172839506172839,68.88888888888889,0)" xlink:href="#ax"/></g><g id="O"><use transform="matrix(0.06172839506172839,0,0,0.06172839506172839,0,0)" xlink:href="#aL"/><use transform="matrix(0.06172839506172839,0,0,0.06172839506172839,12.345679012345679,0)" xlink:href="#aw"/><use transform="matrix(0.06172839506172839,0,0,0.06172839506172839,19.691358024691358,0)" xlink:href="#aC"/><use transform="matrix(0.06172839506172839,0,0,0.06172839506172839,32.03703703703704,0)" xlink:href="#aN"/><use transform="matrix(0.06172839506172839,0,0,0.06172839506172839,44.382716049382715,0)" xlink:href="#aw"/></g><g id="P"><use transform="matrix(0.06172839506172839,0,0,0.06172839506172839,0,0)" xlink:href="#ay"/><use transform="matrix(0.06172839506172839,0,0,0.06172839506172839,14.814814814814813,0)" xlink:href="#az"/></g><g id="Q"><use transform="matrix(0.06172839506172839,0,0,0.06172839506172839,0,0)" xlink:href="#aB"/><use transform="matrix(0.06172839506172839,0,0,0.06172839506172839,4.876543209876543,0)" xlink:href="#aC"/></g><g id="R"><use transform="matrix(0.06172839506172839,0,0,0.06172839506172839,0,0)" xlink:href="#aD"/><use transform="matrix(0.06172839506172839,0,0,0.06172839506172839,12.345679012345679,0)" xlink:href="#aB"/><use transform="matrix(0.06172839506172839,0,0,0.06172839506172839,17.22222222222222,0)" xlink:href="#aE"/><use transform="matrix(0.06172839506172839,0,0,0.06172839506172839,29.5679012345679,0)" xlink:href="#aB"/><use transform="matrix(0.06172839506172839,0,0,0.06172839506172839,34.44444444444444,0)" xlink:href="#aF"/><use transform="matrix(0.06172839506172839,0,0,0.06172839506172839,46.79012345679012,0)" xlink:href="#ax"/></g><g id="S"><use transform="matrix(0.06172839506172839,0,0,0.06172839506172839,0,0)" xlink:href="#ax"/><use transform="matrix(0.06172839506172839,0,0,0.06172839506172839,6.172839506172839,0)" xlink:href="#aL"/><use transform="matrix(0.06172839506172839,0,0,0.06172839506172839,18.51851851851852,0)" xlink:href="#ax"/><use transform="matrix(0.06172839506172839,0,0,0.06172839506172839,24.691358024691358,0)" xlink:href="#av"/><use transform="matrix(0.06172839506172839,0,0,0.06172839506172839,37.03703703703704,0)" xlink:href="#aX"/><use transform="matrix(0.06172839506172839,0,0,0.06172839506172839,41.91358024691358,0)" xlink:href="#aA"/><use transform="matrix(0.06172839506172839,0,0,0.06172839506172839,54.25925925925926,0)" xlink:href="#aO"/><use transform="matrix(0.06172839506172839,0,0,0.06172839506172839,66.60493827160494,0)" xlink:href="#aw"/><use transform="matrix(0.06172839506172839,0,0,0.06172839506172839,73.95061728395062,0)" xlink:href="#aB"/><use transform="matrix(0.06172839506172839,0,0,0.06172839506172839,78.82716049382717,0)" xlink:href="#au"/><use transform="matrix(0.06172839506172839,0,0,0.06172839506172839,89.93827160493828,0)" xlink:href="#aN"/></g><g id="T"><use transform="matrix(0.06172839506172839,0,0,0.06172839506172839,0,0)" xlink:href="#aC"/><use transform="matrix(0.06172839506172839,0,0,0.06172839506172839,12.345679012345679,0)" xlink:href="#aL"/><use transform="matrix(0.06172839506172839,0,0,0.06172839506172839,24.691358024691358,0)" xlink:href="#aH"/><use transform="matrix(0.06172839506172839,0,0,0.06172839506172839,37.03703703703704,0)" xlink:href="#aD"/><use transform="matrix(0.06172839506172839,0,0,0.06172839506172839,49.382716049382715,0)" xlink:href="#aX"/><use transform="matrix(0.06172839506172839,0,0,0.06172839506172839,54.25925925925926,0)" xlink:href="#aN"/></g><g id="U"><use transform="matrix(0.06172839506172839,0,0,0.06172839506172839,0,0)" xlink:href="#aO"/><use transform="matrix(0.06172839506172839,0,0,0.06172839506172839,12.345679012345679,0)" xlink:href="#aw"/><use transform="matrix(0.06172839506172839,0,0,0.06172839506172839,19.691358024691358,0)" xlink:href="#aN"/><use transform="matrix(0.06172839506172839,0,0,0.06172839506172839,32.03703703703704,0)" xlink:href="#au"/><use transform="matrix(0.06172839506172839,0,0,0.06172839506172839,43.14814814814815,0)" xlink:href="#aB"/><use transform="matrix(0.06172839506172839,0,0,0.06172839506172839,48.0246913580247,0)" xlink:href="#aK"/><use transform="matrix(0.06172839506172839,0,0,0.06172839506172839,59.13580246913581,0)" xlink:href="#aB"/><use transform="matrix(0.06172839506172839,0,0,0.06172839506172839,64.01234567901236,0)" xlink:href="#aL"/><use transform="matrix(0.06172839506172839,0,0,0.06172839506172839,76.35802469135804,0)" xlink:href="#aF"/></g><g id="V"><use transform="matrix(0.06172839506172839,0,0,0.06172839506172839,0,0)" xlink:href="#aJ"/><use transform="matrix(0.06172839506172839,0,0,0.06172839506172839,13.518518518518517,0)" xlink:href="#az"/></g><g id="W"><use transform="matrix(0.06172839506172839,0,0,0.06172839506172839,0,0)" xlink:href="#au"/><use transform="matrix(0.06172839506172839,0,0,0.06172839506172839,11.11111111111111,0)" xlink:href="#aH"/><use transform="matrix(0.06172839506172839,0,0,0.06172839506172839,23.45679012345679,0)" xlink:href="#aK"/><use transform="matrix(0.06172839506172839,0,0,0.06172839506172839,34.5679012345679,0)" xlink:href="#ax"/><use transform="matrix(0.06172839506172839,0,0,0.06172839506172839,40.74074074074074,0)" xlink:href="#aL"/><use transform="matrix(0.06172839506172839,0,0,0.06172839506172839,53.08641975308642,0)" xlink:href="#aM"/><use transform="matrix(0.06172839506172839,0,0,0.06172839506172839,71.5432098765432,0)" xlink:href="#aN"/><use transform="matrix(0.06172839506172839,0,0,0.06172839506172839,83.88888888888889,0)" xlink:href="#aw"/><use transform="matrix(0.06172839506172839,0,0,0.06172839506172839,91.23456790123457,0)" xlink:href="#aA"/><use transform="matrix(0.06172839506172839,0,0,0.06172839506172839,103.58024691358025,0)" xlink:href="#aB"/><use transform="matrix(0.06172839506172839,0,0,0.06172839506172839,108.4567901234568,0)" xlink:href="#aC"/></g><g id="X"><use transform="matrix(0.06172839506172839,0,0,0.06172839506172839,0,0)" xlink:href="#aO"/><use transform="matrix(0.06172839506172839,0,0,0.06172839506172839,12.345679012345679,0)" xlink:href="#av"/><use transform="matrix(0.06172839506172839,0,0,0.06172839506172839,24.691358024691358,0)" xlink:href="#aI"/><use transform="matrix(0.06172839506172839,0,0,0.06172839506172839,35.80246913580247,0)" xlink:href="#aM"/><use transform="matrix(0.06172839506172839,0,0,0.06172839506172839,54.25925925925925,0)" xlink:href="#aN"/><use transform="matrix(0.06172839506172839,0,0,0.06172839506172839,66.60493827160494,0)" xlink:href="#aF"/><use transform="matrix(0.06172839506172839,0,0,0.06172839506172839,78.95061728395062,0)" xlink:href="#ax"/><use transform="matrix(0.06172839506172839,0,0,0.06172839506172839,85.12345679012346,0)" xlink:href="#aA"/><use transform="matrix(0.06172839506172839,0,0,0.06172839506172839,97.46913580246914,0)" xlink:href="#aB"/><use transform="matrix(0.06172839506172839,0,0,0.06172839506172839,102.34567901234568,0)" xlink:href="#aC"/></g><g id="Y"><use transform="matrix(0.06172839506172839,0,0,0.06172839506172839,0,0)" xlink:href="#au"/><use transform="matrix(0.06172839506172839,0,0,0.06172839506172839,11.11111111111111,0)" xlink:href="#aw"/><use transform="matrix(0.06172839506172839,0,0,0.06172839506172839,18.45679012345679,0)" xlink:href="#aN"/><use transform="matrix(0.06172839506172839,0,0,0.06172839506172839,30.80246913580247,0)" xlink:href="#av"/><use transform="matrix(0.06172839506172839,0,0,0.06172839506172839,43.148148148148145,0)" xlink:href="#ax"/><use transform="matrix(0.06172839506172839,0,0,0.06172839506172839,49.32098765432099,0)" xlink:href="#aN"/><use transform="matrix(0.06172839506172839,0,0,0.06172839506172839,61.666666666666664,0)" xlink:href="#aC"/><use transform="matrix(0.06172839506172839,0,0,0.06172839506172839,74.01234567901234,0)" xlink:href="#aA"/><use transform="matrix(0.06172839506172839,0,0,0.06172839506172839,86.35802469135803,0)" xlink:href="#av"/><use transform="matrix(0.06172839506172839,0,0,0.06172839506172839,98.70370370370371,0)" xlink:href="#ax"/></g><g id="Z"><use transform="matrix(0.06172839506172839,0,0,0.06172839506172839,0,0)" xlink:href="#ax"/><use transform="matrix(0.06172839506172839,0,0,0.06172839506172839,6.172839506172839,0)" xlink:href="#aB"/><use transform="matrix(0.06172839506172839,0,0,0.06172839506172839,11.049382716049383,0)" xlink:href="#aM"/><use transform="matrix(0.06172839506172839,0,0,0.06172839506172839,29.50617283950617,0)" xlink:href="#aN"/><use transform="matrix(0.06172839506172839,0,0,0.06172839506172839,41.85185185185185,0)" xlink:href="#aK"/><use transform="matrix(0.06172839506172839,0,0,0.06172839506172839,52.96296296296296,0)" xlink:href="#ax"/><use transform="matrix(0.06172839506172839,0,0,0.06172839506172839,59.135802469135804,0)" xlink:href="#av"/><use transform="matrix(0.06172839506172839,0,0,0.06172839506172839,71.48148148148148,0)" xlink:href="#aM"/><use transform="matrix(0.06172839506172839,0,0,0.06172839506172839,89.93827160493827,0)" xlink:href="#aO"/></g><g id="aa"><use transform="matrix(0.06172839506172839,0,0,0.06172839506172839,0,0)" xlink:href="#aP"/><use transform="matrix(0.06172839506172839,0,0,0.06172839506172839,15.987654320987653,0)" xlink:href="#aB"/><use transform="matrix(0.06172839506172839,0,0,0.06172839506172839,20.864197530864196,0)" xlink:href="#ax"/><use transform="matrix(0.06172839506172839,0,0,0.06172839506172839,27.037037037037035,0)" xlink:href="#aQ"/></g><g id="ab"><use transform="matrix(0.06172839506172839,0,0,0.06172839506172839,0,0)" xlink:href="#ax"/><use transform="matrix(0.06172839506172839,0,0,0.06172839506172839,6.172839506172839,0)" xlink:href="#aB"/><use transform="matrix(0.06172839506172839,0,0,0.06172839506172839,11.049382716049383,0)" xlink:href="#aM"/><use transform="matrix(0.06172839506172839,0,0,0.06172839506172839,29.50617283950617,0)" xlink:href="#aN"/></g><g id="ac"><use transform="matrix(0.06172839506172839,0,0,0.06172839506172839,0,0)" xlink:href="#aR"/><use transform="matrix(0.06172839506172839,0,0,0.06172839506172839,11.11111111111111,0)" xlink:href="#aL"/><use transform="matrix(0.06172839506172839,0,0,0.06172839506172839,23.45679012345679,0)" xlink:href="#aF"/><use transform="matrix(0.06172839506172839,0,0,0.06172839506172839,35.80246913580247,0)" xlink:href="#aN"/></g><g id="ad"><use transform="matrix(0.06172839506172839,0,0,0.06172839506172839,0,0)" xlink:href="#au"/><use transform="matrix(0.06172839506172839,0,0,0.06172839506172839,11.11111111111111,0)" xlink:href="#aw"/><use transform="matrix(0.06172839506172839,0,0,0.06172839506172839,18.45679012345679,0)" xlink:href="#aN"/><use transform="matrix(0.06172839506172839,0,0,0.06172839506172839,30.80246913580247,0)" xlink:href="#av"/><use transform="matrix(0.06172839506172839,0,0,0.06172839506172839,43.148148148148145,0)" xlink:href="#ax"/><use transform="matrix(0.06172839506172839,0,0,0.06172839506172839,49.32098765432099,0)" xlink:href="#aN"/><use transform="matrix(0.06172839506172839,0,0,0.06172839506172839,61.666666666666664,0)" xlink:href="#aC"/><use transform="matrix(0.06172839506172839,0,0,0.06172839506172839,74.01234567901234,0)" xlink:href="#aA"/><use transform="matrix(0.06172839506172839,0,0,0.06172839506172839,86.35802469135803,0)" xlink:href="#aD"/><use transform="matrix(0.06172839506172839,0,0,0.06172839506172839,98.70370370370371,0)" xlink:href="#aI"/></g><g id="ae"><use transform="matrix(0.06172839506172839,0,0,0.06172839506172839,0,0)" xlink:href="#au"/><use transform="matrix(0.06172839506172839,0,0,0.06172839506172839,11.11111111111111,0)" xlink:href="#aQ"/><use transform="matrix(0.06172839506172839,0,0,0.06172839506172839,23.45679012345679,0)" xlink:href="#av"/><use transform="matrix(0.06172839506172839,0,0,0.06172839506172839,35.80246913580247,0)" xlink:href="#aw"/><use transform="matrix(0.06172839506172839,0,0,0.06172839506172839,43.148148148148145,0)" xlink:href="#av"/><use transform="matrix(0.06172839506172839,0,0,0.06172839506172839,55.49382716049382,0)" xlink:href="#au"/><use transform="matrix(0.06172839506172839,0,0,0.06172839506172839,66.60493827160494,0)" xlink:href="#ax"/><use transform="matrix(0.06172839506172839,0,0,0.06172839506172839,72.77777777777777,0)" xlink:href="#aN"/><use transform="matrix(0.06172839506172839,0,0,0.06172839506172839,85.12345679012346,0)" xlink:href="#aw"/></g><g id="af"><use transform="matrix(0.06172839506172839,0,0,0.06172839506172839,0,0)" xlink:href="#aS"/><use transform="matrix(0.06172839506172839,0,0,0.06172839506172839,11.11111111111111,0)" xlink:href="#av"/><use transform="matrix(0.06172839506172839,0,0,0.06172839506172839,23.45679012345679,0)" xlink:href="#aw"/><use transform="matrix(0.06172839506172839,0,0,0.06172839506172839,30.80246913580247,0)" xlink:href="#aI"/><use transform="matrix(0.06172839506172839,0,0,0.06172839506172839,41.91358024691358,0)" xlink:href="#aB"/><use transform="matrix(0.06172839506172839,0,0,0.06172839506172839,46.79012345679013,0)" xlink:href="#aF"/><use transform="matrix(0.06172839506172839,0,0,0.06172839506172839,59.135802469135804,0)" xlink:href="#aE"/><use transform="matrix(0.06172839506172839,0,0,0.06172839506172839,71.48148148148148,0)" xlink:href="#aT"/><use transform="matrix(0.06172839506172839,0,0,0.06172839506172839,78.82716049382717,0)" xlink:href="#aU"/><use transform="matrix(0.06172839506172839,0,0,0.06172839506172839,91.17283950617285,0)" xlink:href="#aV"/><use transform="matrix(0.06172839506172839,0,0,0.06172839506172839,103.51851851851853,0)" xlink:href="#aW"/></g><g id="ag"><use transform="matrix(0.06172839506172839,0,0,0.06172839506172839,0,0)" xlink:href="#aH"/><use transform="matrix(0.06172839506172839,0,0,0.06172839506172839,12.345679012345679,0)" xlink:href="#aO"/><use transform="matrix(0.06172839506172839,0,0,0.06172839506172839,24.691358024691358,0)" xlink:href="#aC"/><use transform="matrix(0.06172839506172839,0,0,0.06172839506172839,37.03703703703704,0)" xlink:href="#av"/><use transform="matrix(0.06172839506172839,0,0,0.06172839506172839,49.382716049382715,0)" xlink:href="#ax"/><use transform="matrix(0.06172839506172839,0,0,0.06172839506172839,55.55555555555556,0)" xlink:href="#aN"/><use transform="matrix(0.06172839506172839,0,0,0.06172839506172839,67.90123456790124,0)" xlink:href="#aC"/><use transform="matrix(0.06172839506172839,0,0,0.06172839506172839,80.24691358024693,0)" xlink:href="#aA"/><use transform="matrix(0.06172839506172839,0,0,0.06172839506172839,92.59259259259261,0)" xlink:href="#av"/><use transform="matrix(0.06172839506172839,0,0,0.06172839506172839,104.9382716049383,0)" xlink:href="#ax"/></g><g id="ah"><use transform="matrix(0.06172839506172839,0,0,0.06172839506172839,0,0)" xlink:href="#aH"/><use transform="matrix(0.06172839506172839,0,0,0.06172839506172839,12.345679012345679,0)" xlink:href="#aO"/><use transform="matrix(0.06172839506172839,0,0,0.06172839506172839,24.691358024691358,0)" xlink:href="#aC"/><use transform="matrix(0.06172839506172839,0,0,0.06172839506172839,37.03703703703704,0)" xlink:href="#av"/><use transform="matrix(0.06172839506172839,0,0,0.06172839506172839,49.382716049382715,0)" xlink:href="#ax"/><use transform="matrix(0.06172839506172839,0,0,0.06172839506172839,55.55555555555556,0)" xlink:href="#aN"/><use transform="matrix(0.06172839506172839,0,0,0.06172839506172839,67.90123456790124,0)" xlink:href="#aC"/><use transform="matrix(0.06172839506172839,0,0,0.06172839506172839,80.24691358024693,0)" xlink:href="#aA"/><use transform="matrix(0.06172839506172839,0,0,0.06172839506172839,92.59259259259261,0)" xlink:href="#aD"/><use transform="matrix(0.06172839506172839,0,0,0.06172839506172839,104.9382716049383,0)" xlink:href="#aI"/></g><g id="ai"><use transform="matrix(0.06172839506172839,0,0,0.06172839506172839,0,0)" xlink:href="#aC"/><use transform="matrix(0.06172839506172839,0,0,0.06172839506172839,12.345679012345679,0)" xlink:href="#aN"/><use transform="matrix(0.06172839506172839,0,0,0.06172839506172839,24.691358024691358,0)" xlink:href="#aX"/><use transform="matrix(0.06172839506172839,0,0,0.06172839506172839,29.5679012345679,0)" xlink:href="#aN"/><use transform="matrix(0.06172839506172839,0,0,0.06172839506172839,41.913580246913575,0)" xlink:href="#ax"/><use transform="matrix(0.06172839506172839,0,0,0.06172839506172839,48.08641975308642,0)" xlink:href="#aN"/><use transform="matrix(0.06172839506172839,0,0,0.06172839506172839,60.432098765432094,0)" xlink:href="#aC"/><use transform="matrix(0.06172839506172839,0,0,0.06172839506172839,72.77777777777777,0)" xlink:href="#aA"/><use transform="matrix(0.06172839506172839,0,0,0.06172839506172839,85.12345679012346,0)" xlink:href="#av"/><use transform="matrix(0.06172839506172839,0,0,0.06172839506172839,97.46913580246914,0)" xlink:href="#ax"/></g><g id="aj"><use transform="matrix(0.06172839506172839,0,0,0.06172839506172839,0,0)" xlink:href="#aC"/><use transform="matrix(0.06172839506172839,0,0,0.06172839506172839,12.345679012345679,0)" xlink:href="#aN"/><use transform="matrix(0.06172839506172839,0,0,0.06172839506172839,24.691358024691358,0)" xlink:href="#aX"/><use transform="matrix(0.06172839506172839,0,0,0.06172839506172839,29.5679012345679,0)" xlink:href="#aN"/><use transform="matrix(0.06172839506172839,0,0,0.06172839506172839,41.913580246913575,0)" xlink:href="#ax"/><use transform="matrix(0.06172839506172839,0,0,0.06172839506172839,48.08641975308642,0)" xlink:href="#aN"/><use transform="matrix(0.06172839506172839,0,0,0.06172839506172839,60.432098765432094,0)" xlink:href="#aC"/><use transform="matrix(0.06172839506172839,0,0,0.06172839506172839,72.77777777777777,0)" xlink:href="#aA"/><use transform="matrix(0.06172839506172839,0,0,0.06172839506172839,85.12345679012346,0)" xlink:href="#aD"/><use transform="matrix(0.06172839506172839,0,0,0.06172839506172839,97.46913580246914,0)" xlink:href="#aI"/></g><g id="ak"><use transform="matrix(0.06172839506172839,0,0,0.06172839506172839,0,0)" xlink:href="#aO"/><use transform="matrix(0.06172839506172839,0,0,0.06172839506172839,12.345679012345679,0)" xlink:href="#av"/><use transform="matrix(0.06172839506172839,0,0,0.06172839506172839,24.691358024691358,0)" xlink:href="#aI"/><use transform="matrix(0.06172839506172839,0,0,0.06172839506172839,35.80246913580247,0)" xlink:href="#aM"/><use transform="matrix(0.06172839506172839,0,0,0.06172839506172839,54.25925925925925,0)" xlink:href="#aN"/><use transform="matrix(0.06172839506172839,0,0,0.06172839506172839,66.60493827160494,0)" xlink:href="#aF"/><use transform="matrix(0.06172839506172839,0,0,0.06172839506172839,78.95061728395062,0)" xlink:href="#ax"/></g><g id="al"><use transform="matrix(0.06172839506172839,0,0,0.06172839506172839,0,0)" xlink:href="#aM"/><use transform="matrix(0.06172839506172839,0,0,0.06172839506172839,18.456790123456788,0)" xlink:href="#aN"/><use transform="matrix(0.06172839506172839,0,0,0.06172839506172839,30.80246913580247,0)" xlink:href="#ax"/><use transform="matrix(0.06172839506172839,0,0,0.06172839506172839,36.97530864197531,0)" xlink:href="#aQ"/><use transform="matrix(0.06172839506172839,0,0,0.06172839506172839,49.32098765432099,0)" xlink:href="#aL"/><use transform="matrix(0.06172839506172839,0,0,0.06172839506172839,61.666666666666664,0)" xlink:href="#aC"/></g><g id="am"><use transform="matrix(0.06172839506172839,0,0,0.06172839506172839,0,0)" xlink:href="#aS"/><use transform="matrix(0.06172839506172839,0,0,0.06172839506172839,11.11111111111111,0)" xlink:href="#av"/><use transform="matrix(0.06172839506172839,0,0,0.06172839506172839,23.45679012345679,0)" xlink:href="#aw"/><use transform="matrix(0.06172839506172839,0,0,0.06172839506172839,30.80246913580247,0)" xlink:href="#aI"/><use transform="matrix(0.06172839506172839,0,0,0.06172839506172839,41.91358024691358,0)" xlink:href="#aB"/><use transform="matrix(0.06172839506172839,0,0,0.06172839506172839,46.79012345679013,0)" xlink:href="#aF"/><use transform="matrix(0.06172839506172839,0,0,0.06172839506172839,59.135802469135804,0)" xlink:href="#aE"/><use transform="matrix(0.06172839506172839,0,0,0.06172839506172839,71.48148148148148,0)" xlink:href="#aT"/><use transform="matrix(0.06172839506172839,0,0,0.06172839506172839,78.82716049382717,0)" xlink:href="#aY"/><use transform="matrix(0.06172839506172839,0,0,0.06172839506172839,91.17283950617285,0)" xlink:href="#aV"/><use transform="matrix(0.06172839506172839,0,0,0.06172839506172839,103.51851851851853,0)" xlink:href="#aV"/><use transform="matrix(0.06172839506172839,0,0,0.06172839506172839,115.86419753086422,0)" xlink:href="#aW"/></g><g id="an"><use transform="matrix(0.06172839506172839,0,0,0.06172839506172839,0,0)" xlink:href="#av"/><use transform="matrix(0.06172839506172839,0,0,0.06172839506172839,12.345679012345679,0)" xlink:href="#aM"/><use transform="matrix(0.06172839506172839,0,0,0.06172839506172839,30.80246913580247,0)" xlink:href="#aL"/><use transform="matrix(0.06172839506172839,0,0,0.06172839506172839,43.148148148148145,0)" xlink:href="#aH"/><use transform="matrix(0.06172839506172839,0,0,0.06172839506172839,55.49382716049382,0)" xlink:href="#aF"/><use transform="matrix(0.06172839506172839,0,0,0.06172839506172839,67.8395061728395,0)" xlink:href="#ax"/></g><g id="ao"><use transform="matrix(0.06172839506172839,0,0,0.06172839506172839,0,0)" xlink:href="#aK"/><use transform="matrix(0.06172839506172839,0,0,0.06172839506172839,11.11111111111111,0)" xlink:href="#ax"/><use transform="matrix(0.06172839506172839,0,0,0.06172839506172839,17.28395061728395,0)" xlink:href="#av"/><use transform="matrix(0.06172839506172839,0,0,0.06172839506172839,29.629629629629626,0)" xlink:href="#ax"/><use transform="matrix(0.06172839506172839,0,0,0.06172839506172839,35.80246913580247,0)" xlink:href="#aH"/><use transform="matrix(0.06172839506172839,0,0,0.06172839506172839,48.148148148148145,0)" xlink:href="#aK"/></g><g id="ap"><use transform="matrix(0.06172839506172839,0,0,0.06172839506172839,0,0)" xlink:href="#aL"/><use transform="matrix(0.06172839506172839,0,0,0.06172839506172839,12.345679012345679,0)" xlink:href="#aw"/><use transform="matrix(0.06172839506172839,0,0,0.06172839506172839,19.691358024691358,0)" xlink:href="#aC"/><use transform="matrix(0.06172839506172839,0,0,0.06172839506172839,32.03703703703704,0)" xlink:href="#aN"/><use transform="matrix(0.06172839506172839,0,0,0.06172839506172839,44.382716049382715,0)" xlink:href="#aw"/><use transform="matrix(0.06172839506172839,0,0,0.06172839506172839,51.72839506172839,0)" xlink:href="#aA"/><use transform="matrix(0.06172839506172839,0,0,0.06172839506172839,64.07407407407408,0)" xlink:href="#aB"/><use transform="matrix(0.06172839506172839,0,0,0.06172839506172839,68.95061728395062,0)" xlink:href="#ax"/><use transform="matrix(0.06172839506172839,0,0,0.06172839506172839,75.12345679012346,0)" xlink:href="#aN"/><use transform="matrix(0.06172839506172839,0,0,0.06172839506172839,87.46913580246914,0)" xlink:href="#aM"/></g><g id="aq"><use transform="matrix(0.06172839506172839,0,0,0.06172839506172839,0,0)" xlink:href="#aG"/><use transform="matrix(0.06172839506172839,0,0,0.06172839506172839,12.345679012345679,0)" xlink:href="#aH"/><use transform="matrix(0.06172839506172839,0,0,0.06172839506172839,24.691358024691358,0)" xlink:href="#av"/><use transform="matrix(0.06172839506172839,0,0,0.06172839506172839,37.03703703703704,0)" xlink:href="#aF"/><use transform="matrix(0.06172839506172839,0,0,0.06172839506172839,49.382716049382715,0)" xlink:href="#ax"/><use transform="matrix(0.06172839506172839,0,0,0.06172839506172839,55.55555555555556,0)" xlink:href="#aB"/><use transform="matrix(0.06172839506172839,0,0,0.06172839506172839,60.4320987654321,0)" xlink:href="#ax"/><use transform="matrix(0.06172839506172839,0,0,0.06172839506172839,66.60493827160494,0)" xlink:href="#aI"/></g><g id="ar"><use transform="matrix(0.06172839506172839,0,0,0.06172839506172839,0,0)" xlink:href="#aO"/><use transform="matrix(0.06172839506172839,0,0,0.06172839506172839,12.345679012345679,0)" xlink:href="#aw"/><use transform="matrix(0.06172839506172839,0,0,0.06172839506172839,19.691358024691358,0)" xlink:href="#aL"/><use transform="matrix(0.06172839506172839,0,0,0.06172839506172839,32.03703703703704,0)" xlink:href="#aC"/><use transform="matrix(0.06172839506172839,0,0,0.06172839506172839,44.382716049382715,0)" xlink:href="#aH"/><use transform="matrix(0.06172839506172839,0,0,0.06172839506172839,56.72839506172839,0)" xlink:href="#au"/><use transform="matrix(0.06172839506172839,0,0,0.06172839506172839,67.8395061728395,0)" xlink:href="#ax"/><use transform="matrix(0.06172839506172839,0,0,0.06172839506172839,74.01234567901234,0)" xlink:href="#aA"/><use transform="matrix(0.06172839506172839,0,0,0.06172839506172839,86.35802469135803,0)" xlink:href="#aB"/><use transform="matrix(0.06172839506172839,0,0,0.06172839506172839,91.23456790123457,0)" xlink:href="#aC"/></g><g id="as"><use transform="matrix(0.06172839506172839,0,0,0.06172839506172839,0,0)" xlink:href="#aO"/><use transform="matrix(0.06172839506172839,0,0,0.06172839506172839,12.345679012345679,0)" xlink:href="#aw"/><use transform="matrix(0.06172839506172839,0,0,0.06172839506172839,19.691358024691358,0)" xlink:href="#aB"/><use transform="matrix(0.06172839506172839,0,0,0.06172839506172839,24.5679012345679,0)" xlink:href="#au"/><use transform="matrix(0.06172839506172839,0,0,0.06172839506172839,35.67901234567901,0)" xlink:href="#aN"/></g><g id="at"><use transform="matrix(0.06172839506172839,0,0,0.06172839506172839,0,0)" xlink:href="#aL"/><use transform="matrix(0.06172839506172839,0,0,0.06172839506172839,12.345679012345679,0)" xlink:href="#aw"/><use transform="matrix(0.06172839506172839,0,0,0.06172839506172839,19.691358024691358,0)" xlink:href="#aC"/><use transform="matrix(0.06172839506172839,0,0,0.06172839506172839,32.03703703703704,0)" xlink:href="#aN"/><use transform="matrix(0.06172839506172839,0,0,0.06172839506172839,44.382716049382715,0)" xlink:href="#aw"/><use transform="matrix(0.06172839506172839,0,0,0.06172839506172839,51.72839506172839,0)" xlink:href="#aA"/><use transform="matrix(0.06172839506172839,0,0,0.06172839506172839,64.07407407407408,0)" xlink:href="#aB"/><use transform="matrix(0.06172839506172839,0,0,0.06172839506172839,68.95061728395062,0)" xlink:href="#aC"/></g></defs></g></svg>